<?xml version="1.0" standalone="no"?>
<!DOCTYPE svg PUBLIC "-//W3C//DTD SVG 20010904//EN"
 "http://www.w3.org/TR/2001/REC-SVG-20010904/DTD/svg10.dtd">
<svg version="1.0" xmlns="http://www.w3.org/2000/svg"
 width="3648.000000pt" height="5472.000000pt" viewBox="0 0 3648.000000 5472.000000"
 preserveAspectRatio="xMidYMid meet">

<g transform="translate(0.000000,5472.000000) scale(0.100000,-0.100000)"
fill="#000000" stroke="none">
<path d="M0 27360 l0 -27360 18240 0 18240 0 0 27360 0 27360 -18240 0 -18240
0 0 -27360z m10578 24503 c-10 -2 -18 -9 -18 -15 0 -6 -3 -9 -6 -5 -10 10 6
27 24 26 15 -1 15 -2 0 -6z m67 -3 c3 -5 -1 -10 -9 -10 -9 0 -16 5 -16 10 0 6
4 10 9 10 6 0 13 -4 16 -10z m110 -7 c13 -13 19 -13 25 -4 5 9 10 10 14 2 4
-6 12 -11 17 -11 6 0 7 5 4 10 -9 14 51 13 78 -2 12 -6 34 -11 50 -10 15 1 27
-2 27 -8 0 -15 -67 -12 -82 4 -10 10 -19 11 -32 4 -10 -6 -31 -7 -47 -4 -16 3
-29 1 -29 -4 0 -6 -9 -10 -20 -10 -11 0 -20 7 -20 15 0 8 -4 15 -10 15 -5 0
-10 5 -10 10 0 15 17 12 35 -7z m-45 -3 c0 -13 -20 -13 -40 0 -12 8 -9 10 13
10 15 0 27 -4 27 -10z m307 1 c19 -6 35 -5 41 1 7 7 12 3 17 -11 9 -28 -2 -44
-22 -32 -9 4 -24 6 -34 4 -13 -4 -19 0 -19 11 0 9 -6 16 -14 16 -8 0 -18 5
-21 10 -8 12 11 13 52 1z m-297 -31 c0 -5 -4 -10 -9 -10 -6 0 -13 5 -16 10 -3
6 1 10 9 10 9 0 16 -4 16 -10z m210 -841 c58 -7 141 -14 185 -16 44 -2 87 -7
95 -10 17 -7 25 -8 135 -24 85 -12 131 -23 180 -44 17 -7 52 -20 80 -29 54
-18 111 -54 163 -103 19 -18 38 -33 43 -33 5 0 8 -4 6 -8 -1 -5 11 -22 27 -39
39 -42 66 -123 73 -218 5 -68 2 -88 -16 -127 -11 -26 -21 -54 -21 -62 0 -9 -5
-16 -12 -16 -6 0 -8 -3 -5 -6 10 -10 -25 -63 -45 -70 -10 -3 -18 -10 -18 -16
0 -17 -53 -58 -75 -58 -17 0 -17 -2 -5 -10 12 -8 10 -10 -10 -10 -31 -1 -67
-26 -48 -33 8 -3 1 -9 -16 -16 -16 -7 -36 -9 -43 -7 -8 3 -12 2 -9 -3 6 -9
-36 -31 -60 -31 -8 0 -30 -11 -47 -24 -47 -34 -62 -42 -52 -27 6 10 3 11 -13
2 -12 -6 -24 -16 -27 -21 -3 -6 -15 -10 -25 -10 -25 0 -92 -31 -107 -50 -7 -8
-18 -28 -25 -43 -9 -19 -20 -27 -33 -25 -23 2 -85 -28 -85 -42 0 -4 -18 -16
-40 -26 -22 -10 -40 -21 -40 -26 0 -4 -9 -8 -19 -8 -11 0 -28 -13 -38 -30 -9
-17 -26 -33 -38 -36 -11 -4 -34 -17 -52 -30 -18 -14 -53 -33 -78 -44 -25 -11
-45 -24 -45 -30 0 -5 -4 -10 -9 -10 -5 0 -25 -7 -46 -15 -31 -13 -35 -18 -24
-31 10 -13 5 -14 -44 -8 -53 6 -57 5 -66 -18 -13 -34 -36 -51 -61 -43 -26 8
-25 17 5 43 14 12 25 26 25 32 0 5 7 7 15 4 8 -4 15 -2 15 4 0 16 -27 22 -108
22 -67 1 -82 4 -117 28 -43 30 -110 138 -140 225 -16 45 -16 51 0 93 9 24 22
44 29 44 7 0 23 18 35 41 19 34 28 40 47 36 15 -2 24 1 24 8 0 6 18 17 40 24
22 6 41 15 41 19 9 54 7 73 -5 78 -20 8 -17 62 3 68 9 2 41 10 71 17 30 6 57
15 60 20 7 10 107 14 139 6 24 -6 60 7 73 27 4 6 33 11 65 12 111 2 248 15
260 26 7 5 17 7 23 3 7 -4 24 4 38 18 21 19 37 25 70 24 37 -1 47 3 64 26 20
27 51 36 63 17 10 -16 65 -12 65 4 0 17 54 40 76 32 15 -6 114 49 114 64 0 13
-35 45 -61 57 -15 6 -45 9 -68 6 -24 -3 -41 -2 -41 4 0 23 -285 75 -375 69
-16 -1 -36 2 -42 7 -16 11 -457 14 -500 3 -23 -6 -33 -5 -33 3 0 15 -85 14
-113 -1 -12 -6 -72 -12 -138 -13 -64 -1 -122 -5 -129 -10 -7 -4 -26 -8 -42 -7
-15 0 -26 -4 -23 -9 4 -5 -6 -10 -22 -11 -15 0 -32 -2 -38 -3 -5 -1 -30 -5
-55 -9 -81 -13 -145 -28 -157 -39 -7 -5 -13 -7 -13 -3 0 7 -141 -43 -154 -56
-6 -4 -20 -8 -32 -8 -13 0 -26 -5 -29 -11 -4 -6 -14 -8 -22 -5 -9 4 -11 2 -7
-6 5 -8 2 -9 -10 -5 -15 6 -35 0 -131 -44 -22 -9 -52 -21 -67 -24 -16 -4 -28
-10 -28 -14 0 -4 -21 -17 -47 -29 -65 -29 -152 -79 -170 -97 -8 -9 -18 -13
-23 -10 -5 3 -15 -4 -23 -15 -7 -11 -17 -17 -20 -13 -4 3 -7 1 -7 -5 0 -6 -9
-13 -19 -17 -10 -3 -21 -15 -24 -25 -4 -14 -10 -18 -22 -14 -16 6 -53 -31 -48
-48 2 -4 -4 -5 -12 -2 -8 4 -15 1 -15 -5 0 -6 -5 -11 -10 -11 -6 0 -20 -9 -32
-20 -12 -11 -17 -20 -11 -20 20 0 25 -39 9 -61 l-15 -22 -6 26 c-4 16 -16 28
-31 31 -28 7 -47 0 -39 -15 4 -5 -1 -9 -10 -9 -10 0 -13 -5 -9 -12 4 -6 3 -8
-4 -4 -10 6 -48 -38 -54 -64 -5 -23 -39 -52 -63 -54 -13 0 -21 -4 -19 -8 7
-11 -28 -48 -39 -41 -6 3 -7 1 -3 -5 3 -6 -3 -16 -14 -22 -11 -6 -20 -7 -20
-3 0 4 -8 -5 -19 -22 -12 -21 -15 -32 -7 -37 7 -5 6 -8 -3 -8 -24 0 -60 -40
-54 -59 4 -9 2 -13 -2 -9 -12 12 -36 -28 -29 -49 4 -14 4 -15 -4 -4 -8 11 -11
9 -17 -10 -13 -44 -30 -79 -39 -79 -4 0 -6 -12 -3 -27 5 -26 -4 -51 -32 -85
-21 -26 -6 -69 22 -64 12 2 33 0 46 -5 18 -7 22 -14 17 -34 -7 -29 16 -92 42
-111 16 -13 16 -13 0 -14 -20 0 -24 -20 -7 -37 8 -8 9 -25 4 -50 -4 -21 -10
-32 -12 -25 -7 17 -30 15 -37 -5 -8 -20 11 -44 22 -27 10 15 79 27 87 15 3 -6
1 -18 -4 -28 -5 -10 -12 -27 -16 -38 -6 -20 -7 -20 -21 -1 -8 11 -14 16 -14
10 0 -5 -6 -2 -13 7 -7 8 -20 18 -29 22 -14 5 -18 1 -18 -19 0 -30 17 -64 31
-64 16 0 48 -42 49 -63 0 -10 4 -16 9 -13 5 3 11 -3 14 -13 4 -15 15 -19 63
-19 80 -1 91 4 111 45 9 20 19 31 21 25 6 -18 44 -14 72 8 14 11 21 20 17 20
-5 0 -1 7 7 16 21 20 70 34 123 34 24 0 43 5 43 10 0 6 6 10 13 10 8 0 22 9
32 20 10 11 30 20 44 20 15 0 37 7 49 16 12 8 27 12 32 9 6 -3 22 3 36 14 15
12 33 21 41 21 8 0 26 12 41 27 15 15 29 28 32 28 19 1 70 30 70 40 0 9 26 12
94 11 86 -1 97 1 115 21 12 12 21 27 21 32 0 9 126 8 156 -1 5 -1 19 3 31 10
13 7 38 13 55 13 80 0 152 9 157 18 4 6 35 8 74 6 49 -3 71 0 81 11 10 10 17
11 22 3 4 -7 20 -8 42 -4 30 5 39 3 53 -16 23 -31 113 -43 177 -23 56 17 62
17 42 3 -11 -8 -12 -12 -2 -16 6 -2 12 -10 12 -17 0 -6 14 -28 31 -49 17 -20
26 -37 20 -37 -15 0 -14 -27 1 -36 7 -4 8 -3 4 5 -5 8 0 10 18 7 38 -7 48 -15
41 -36 -7 -21 10 -59 34 -77 9 -7 12 -13 8 -13 -4 0 -3 -9 3 -20 6 -11 15 -18
20 -15 8 5 36 -34 32 -45 -1 -3 4 -5 11 -5 8 0 11 -14 9 -42 -2 -27 4 -55 18
-82 16 -32 18 -46 10 -61 -6 -11 -15 -20 -20 -20 -5 0 -9 -8 -9 -17 0 -10 -3
-33 -7 -50 -4 -22 -2 -33 5 -33 7 0 3 -16 -10 -41 -11 -23 -16 -38 -10 -34 15
9 13 -4 -8 -45 -9 -19 -22 -34 -27 -33 -6 1 -11 -15 -12 -34 -3 -41 -10 -56
-22 -48 -5 3 -1 -9 8 -27 9 -18 17 -39 19 -47 1 -8 11 -26 21 -41 12 -16 21
-47 23 -79 4 -50 3 -52 -21 -49 -14 2 -31 -4 -38 -12 -11 -13 -12 -13 -11 0 3
29 -1 38 -21 43 -17 4 -20 0 -20 -24 0 -26 -2 -28 -20 -17 -10 7 -22 9 -26 5
-6 -6 -24 -147 -28 -224 -1 -17 -5 -35 -9 -39 -13 -14 -7 -32 13 -37 20 -5 26
-30 14 -61 -4 -11 -13 -14 -29 -10 -26 6 -45 -14 -25 -26 11 -7 11 -11 -1 -22
-28 -28 -49 -29 -61 -3 -14 32 -28 32 -28 1 0 -13 -7 -30 -16 -37 -14 -11 -21
-10 -46 4 -26 15 -35 16 -64 5 -19 -7 -34 -16 -34 -20 0 -4 -13 -8 -29 -8 -16
0 -31 -6 -34 -13 -7 -19 -66 -21 -73 -2 -9 23 -17 18 -38 -25 -13 -28 -23 -37
-30 -30 -7 7 -5 21 6 43 16 34 16 34 -7 29 -17 -3 -25 -13 -30 -38 l-6 -34
-29 21 c-16 12 -36 19 -45 16 -9 -4 -24 -1 -35 5 -16 10 -30 9 -75 -6 -30 -11
-55 -23 -55 -28 0 -5 -5 -6 -11 -3 -6 4 -36 4 -67 0 -40 -5 -51 -10 -38 -15
17 -5 17 -7 4 -13 -9 -3 -25 3 -36 14 -12 10 -28 19 -37 19 -9 0 -26 7 -39 15
-22 15 -24 14 -29 -6 -4 -16 -11 -19 -26 -14 -15 5 -23 1 -27 -12 -16 -51 -21
-54 -17 -10 l6 47 -64 0 c-35 0 -90 1 -121 2 -35 2 -58 -1 -58 -7 0 -5 -5 -2
-11 8 -5 9 -19 17 -29 17 -11 0 -20 4 -20 10 0 15 -42 60 -57 60 -7 0 -13 -6
-13 -14 0 -21 -21 -25 -56 -10 -18 7 -47 16 -65 19 -32 6 -69 34 -69 54 0 11
-22 20 -69 27 -20 3 -49 13 -65 22 -22 13 -30 14 -33 5 -5 -15 -33 -17 -33 -3
0 24 -31 7 -36 -20 -7 -34 -24 -41 -24 -9 0 18 -2 20 -16 9 -13 -11 -16 -10
-21 8 -3 15 -13 22 -29 22 -12 0 -26 5 -30 11 -4 7 -12 -2 -21 -22 -27 -64
-64 -66 -93 -7 -25 53 -25 89 0 111 11 9 20 21 20 26 0 11 -35 21 -77 21 -18
0 -33 5 -33 10 0 6 -4 10 -10 10 -5 0 -10 -7 -10 -15 0 -9 -6 -12 -15 -9 -8 4
-12 11 -9 16 4 6 1 14 -6 18 -17 11 -70 -18 -70 -38 0 -15 -2 -15 -10 -2 -9
14 -14 7 -11 -13 1 -4 -14 -23 -34 -41 -19 -18 -35 -40 -35 -49 0 -8 -12 -26
-27 -39 -33 -28 -77 -113 -69 -133 3 -9 -1 -15 -9 -15 -8 0 -15 -8 -16 -17 0
-16 -1 -16 -8 1 -6 16 -9 14 -21 -15 -8 -19 -20 -40 -27 -47 -7 -7 -13 -21
-13 -30 0 -13 -2 -14 -9 -4 -7 11 -9 11 -14 -2 -3 -8 -1 -16 5 -18 8 -3 7 -13
-4 -34 -49 -94 -58 -111 -64 -129 -3 -11 -7 -34 -8 -52 -1 -17 -8 -38 -15 -47
-7 -8 -11 -21 -8 -28 3 -8 6 -6 6 5 1 10 6 15 11 12 6 -3 10 0 10 7 1 22 29
-35 30 -59 0 -16 -6 -21 -20 -20 -11 1 -20 6 -21 12 0 5 -4 1 -9 -10 -17 -39
-9 -202 10 -190 4 2 5 -7 2 -22 -3 -15 -1 -24 5 -20 5 3 17 -10 27 -30 13 -27
15 -49 10 -92 -6 -52 -3 -63 35 -144 62 -132 125 -221 231 -327 96 -96 217
-180 260 -180 12 0 36 -11 53 -23 68 -50 272 -83 457 -73 197 9 453 72 503
122 12 12 41 27 65 33 23 7 42 16 42 21 0 6 6 10 14 10 8 0 55 21 105 46 65
34 91 53 93 68 2 14 10 21 25 21 12 0 33 12 46 25 46 46 75 70 86 70 6 0 11 4
11 9 0 8 27 19 41 17 12 -2 49 37 49 49 0 17 48 47 62 39 7 -4 8 -3 4 4 -4 7
-2 12 3 12 6 0 11 11 11 24 0 14 4 27 10 31 5 3 7 11 4 18 -3 9 6 13 28 13 47
0 68 10 68 34 0 11 6 20 13 20 9 0 8 3 -2 9 -8 5 -9 11 -3 15 6 3 8 14 5 24
-2 10 7 30 21 46 20 24 22 32 13 49 -9 15 -9 21 1 24 7 3 18 16 23 30 8 22 13
24 47 18 40 -6 71 12 57 35 -3 6 -1 26 5 45 10 32 15 35 61 41 48 6 49 7 49
40 0 29 3 34 23 34 15 0 28 9 35 24 8 18 16 23 32 19 29 -8 60 23 60 60 0 17
8 36 18 43 11 9 13 13 4 14 -18 0 -13 98 6 128 12 19 13 25 3 32 -9 5 -11 18
-6 38 3 18 2 33 -4 37 -14 8 -14 52 -1 60 6 4 22 -1 35 -9 18 -12 25 -25 25
-50 0 -40 9 -44 79 -37 l54 6 4 55 c5 60 10 71 22 51 5 -7 14 -10 20 -7 16 10
14 36 -4 42 -8 4 -15 12 -15 20 0 8 7 14 15 14 8 0 15 5 15 10 0 6 -5 10 -10
10 -6 0 -5 9 2 23 7 12 13 23 13 24 0 0 17 4 38 8 33 7 37 5 37 -14 0 -29 50
-30 57 -1 3 12 10 19 16 17 6 -2 18 4 27 12 8 9 29 28 47 42 38 32 49 62 28
82 -25 26 -14 54 28 70 24 9 33 36 19 58 -12 19 0 35 18 24 6 -4 9 -2 8 3 -3
10 91 92 104 92 5 0 8 11 8 24 0 14 5 28 11 31 6 4 8 13 5 20 -2 7 1 18 7 24
6 6 12 21 14 33 4 28 33 60 48 54 7 -2 18 0 26 5 11 6 8 9 -9 9 l-24 0 27 33
c15 17 39 34 54 37 22 5 25 10 23 34 -3 23 0 27 13 23 9 -4 24 2 35 13 11 11
29 20 41 20 11 0 17 5 14 10 -4 6 5 24 19 41 14 17 26 37 26 45 0 8 16 22 35
30 45 18 45 18 45 -11 0 -17 -15 -41 -41 -68 -63 -65 -69 -73 -69 -85 0 -7 15
-12 34 -12 25 0 38 -6 51 -26 17 -26 17 -26 109 -19 50 4 99 8 109 7 9 0 17 6
17 14 0 8 17 22 38 30 20 8 46 19 57 24 42 18 53 18 68 -1 9 -10 26 -19 37
-19 29 0 26 45 -6 91 -29 42 -29 82 -1 87 27 5 47 -27 41 -65 -5 -28 -3 -34
20 -42 25 -10 40 -43 34 -71 -2 -9 6 -16 19 -18 13 -2 32 -17 44 -34 15 -21
24 -26 29 -18 5 9 13 4 26 -16 10 -16 20 -31 22 -34 2 -3 10 4 18 14 13 18 14
18 14 2 0 -12 5 -16 15 -12 9 3 15 0 15 -8 0 -26 27 -36 106 -37 82 -1 109 2
120 14 4 4 24 7 44 7 52 0 67 20 35 48 -47 41 -19 80 32 47 18 -12 28 -14 31
-7 5 15 42 16 42 2 0 -5 9 -10 20 -10 11 0 29 5 40 10 11 6 28 14 39 19 12 6
22 6 29 -1 6 -6 17 -2 33 15 13 13 37 28 53 31 16 4 30 15 33 26 5 20 23 28
23 11 0 -13 58 -19 70 -7 14 14 50 18 50 6 0 -6 5 -10 10 -10 6 0 10 9 10 19
0 13 7 19 23 19 12 0 32 3 44 7 16 5 28 1 47 -18 30 -30 76 -44 76 -23 0 13 6
12 34 -5 19 -11 38 -19 42 -18 5 1 18 -1 29 -5 11 -5 27 -10 35 -14 22 -8 22
-8 65 -16 22 -5 48 -18 57 -30 13 -16 32 -22 80 -27 57 -5 60 -6 31 -14 -19
-4 -33 -14 -33 -22 0 -10 6 -13 17 -9 9 4 20 1 25 -6 6 -11 10 -10 17 1 11 17
51 -2 51 -25 0 -8 11 -26 25 -40 25 -25 36 -89 16 -96 -14 -5 26 -49 46 -53
14 -2 18 -11 16 -35 -1 -20 2 -28 6 -21 6 10 10 9 15 -4 9 -25 7 -47 -4 -40
-15 9 -12 -8 10 -60 22 -52 19 -112 -6 -122 -8 -3 -14 -9 -14 -14 0 -4 8 -5
17 -2 12 5 15 2 10 -10 -6 -16 2 -21 29 -18 21 2 34 -26 39 -88 4 -60 3 -63
-25 -79 -18 -10 -29 -25 -29 -37 1 -11 -5 -34 -12 -52 -11 -28 -11 -34 4 -51
21 -23 21 -60 2 -86 -8 -10 -12 -23 -8 -29 4 -6 -4 -7 -21 -3 -21 5 -26 4 -22
-6 3 -7 9 -21 12 -30 3 -9 18 -18 32 -20 33 -4 40 -25 10 -30 -17 -2 -23 -10
-24 -28 -1 -14 -5 -33 -9 -42 -6 -14 -2 -18 16 -19 23 -1 23 -2 -4 -12 -18 -7
-26 -16 -22 -26 3 -8 -9 -27 -30 -46 -37 -35 -45 -55 -20 -55 8 0 15 -9 15
-19 0 -11 9 -23 20 -26 11 -3 20 -14 20 -24 0 -10 7 -24 15 -31 8 -7 15 -19
15 -26 0 -22 -28 -16 -32 6 -3 19 -5 18 -35 -6 -26 -20 -33 -33 -34 -62 0 -20
-3 -31 -6 -24 -8 20 -44 14 -50 -8 -4 -15 -14 -20 -37 -20 l-31 0 -2 -60 c-1
-58 -20 -120 -35 -120 -5 0 -8 -13 -8 -30 0 -17 5 -30 12 -30 9 0 9 -3 0 -12
-8 -8 -8 -15 -1 -24 12 -15 3 -37 -12 -28 -6 3 -17 3 -27 -1 -14 -5 -14 -7 -2
-15 12 -7 9 -12 -15 -20 -38 -13 -63 -49 -43 -61 19 -12 40 -11 33 2 -4 6 2
13 14 16 12 3 21 12 21 19 0 8 5 14 11 14 7 0 9 -10 7 -25 -3 -14 -1 -25 6
-25 6 0 0 -6 -13 -13 -34 -17 -22 -33 22 -29 32 3 39 0 44 -17 6 -23 6 -23 43
-23 48 -1 60 2 60 17 0 8 7 15 15 15 9 0 14 8 12 23 -1 15 3 21 14 19 9 -1 22
4 28 12 9 11 6 16 -20 25 -31 11 -32 12 -14 31 21 24 45 26 45 5 0 -8 7 -15
15 -15 19 0 19 -19 0 -40 -14 -16 -14 -17 10 -12 24 4 26 2 20 -24 -6 -26 -5
-27 8 -12 8 10 23 16 35 13 12 -2 24 0 27 6 4 5 -3 9 -13 9 -15 0 -19 5 -15
20 4 16 2 19 -11 14 -12 -5 -16 0 -16 23 0 29 -20 56 -68 95 -29 24 -28 40 6
59 32 19 77 18 97 -2 14 -14 28 -68 27 -101 0 -10 5 -18 13 -18 7 0 16 -13 20
-30 4 -16 12 -30 19 -30 18 0 36 21 36 42 0 13 8 18 25 18 14 0 37 10 51 23
21 20 23 27 14 51 -5 15 -12 40 -15 55 -4 24 -1 30 20 35 18 5 25 13 25 31 0
15 6 25 14 25 19 0 39 112 26 145 -11 29 1 70 24 78 8 3 19 21 24 39 6 26 14
34 35 36 25 3 27 7 27 52 0 29 5 51 13 54 10 5 10 7 0 12 -27 12 -12 22 19 13
44 -12 48 -12 48 8 0 9 -3 13 -7 10 -7 -8 -33 11 -33 24 0 5 9 9 20 9 11 0 20
5 20 10 0 6 -3 10 -7 10 -5 0 -8 12 -8 28 -1 15 -4 37 -8 48 -7 21 -5 24 67
106 11 12 24 16 45 12 23 -5 30 -2 36 15 3 11 1 29 -5 41 -11 21 -5 26 52 44
14 4 16 12 11 38 -3 18 -10 40 -14 50 -6 10 -4 18 4 21 24 9 32 2 32 -28 0
-24 5 -30 22 -31 15 -1 20 3 16 14 -4 8 2 21 12 28 18 14 18 14 -1 15 -18 1
47 20 73 22 6 0 9 6 6 14 -3 7 0 20 7 28 7 8 10 21 7 29 -3 8 1 29 10 46 13
26 19 31 40 26 21 -6 24 -4 21 20 -3 23 1 27 25 28 16 1 33 9 38 18 5 10 17
24 25 33 13 13 14 18 4 31 -10 11 -10 20 -1 40 14 32 14 47 0 38 -8 -4 -9 1
-4 16 6 19 4 22 -9 17 -19 -8 -22 23 -4 41 9 9 9 12 -2 13 -8 1 -19 1 -24 0
-5 -1 -6 5 -3 13 3 8 3 17 -1 21 -4 4 -7 18 -7 31 0 13 -4 23 -8 23 -11 0 -47
46 -47 60 0 6 -11 16 -25 23 -13 6 -22 15 -18 21 6 10 -15 86 -29 101 -11 13
-10 46 1 46 5 0 11 14 15 31 3 19 10 28 17 23 6 -3 23 7 39 24 l28 31 -30 6
c-16 4 -32 14 -36 23 -6 18 -18 33 -44 60 -9 9 -20 35 -24 57 -4 22 -12 43
-18 47 -6 4 -11 31 -11 59 0 43 5 57 28 82 15 16 27 25 27 21 0 -5 14 12 31
39 17 26 38 47 45 47 8 0 14 4 14 10 0 5 11 12 25 16 14 3 25 12 25 20 0 20
47 67 55 54 10 -16 47 -12 90 10 22 11 48 17 58 14 10 -3 29 2 42 10 14 9 47
17 75 17 33 1 57 8 72 20 26 23 32 23 61 4 21 -13 27 -13 62 5 22 11 59 20 85
20 25 0 68 7 95 15 28 9 67 20 89 26 37 10 42 24 8 24 -9 0 -18 8 -20 18 -3
16 0 18 20 12 12 -4 26 -12 29 -17 3 -5 9 1 13 14 5 19 8 20 15 8 9 -14 26 -8
26 10 0 15 68 90 82 90 7 0 15 11 19 24 3 14 12 27 19 30 8 3 23 22 34 43 11
21 32 52 48 70 15 18 37 44 48 59 11 14 31 37 45 50 13 13 21 26 17 30 -4 4 2
13 13 21 11 8 20 20 20 27 0 7 20 34 45 62 24 27 44 56 45 65 0 9 7 22 15 29
8 7 15 17 15 22 0 5 12 20 26 33 33 31 30 69 -6 72 -14 1 -42 -3 -63 -8 -42
-11 -39 -13 -119 67 -29 29 -35 41 -28 55 6 10 10 29 10 42 0 14 6 29 13 34
21 17 155 45 215 45 94 0 189 28 236 69 23 19 49 38 59 42 9 4 17 17 17 29 0
26 68 113 109 140 60 40 159 13 202 -54 40 -65 4 -190 -88 -306 -80 -99 -98
-125 -95 -134 1 -5 -5 -11 -13 -14 -8 -4 -15 -12 -15 -20 0 -8 -4 -14 -10 -14
-5 0 -10 -7 -10 -15 0 -8 -5 -15 -10 -15 -6 0 -16 -12 -23 -27 -6 -16 -20 -37
-29 -47 -10 -11 -18 -28 -18 -38 0 -11 -4 -16 -10 -13 -5 3 -10 -3 -10 -14 0
-11 -11 -28 -25 -37 -14 -9 -22 -20 -19 -25 7 -12 -21 -40 -31 -31 -4 4 -6 2
-4 -3 1 -6 0 -17 -3 -25 -4 -8 -9 -24 -13 -35 -5 -16 -8 -17 -16 -5 -8 12 -10
10 -6 -7 3 -13 1 -23 -3 -23 -5 0 -17 -17 -27 -37 -10 -21 -23 -37 -30 -36 -6
1 -9 -6 -6 -17 3 -11 -4 -28 -16 -41 -12 -13 -22 -28 -22 -33 -1 -6 -2 -15 -4
-21 -1 -5 -3 -15 -3 -22 -1 -7 -9 -10 -19 -6 -12 5 -15 2 -10 -10 4 -11 2 -14
-8 -11 -8 3 -16 -4 -20 -17 -6 -17 -2 -27 19 -42 42 -30 30 -79 -21 -83 -15
-1 -37 -5 -48 -10 -16 -6 -18 -5 -7 7 26 28 11 39 -17 12 -16 -15 -27 -32 -24
-36 3 -4 -8 -19 -24 -33 -15 -13 -23 -24 -17 -24 5 0 20 10 33 21 20 19 30 20
74 14 29 -4 85 -7 125 -7 49 0 70 -3 66 -10 -5 -8 8 -9 42 -4 82 11 135 16
239 21 55 3 132 7 170 10 39 2 90 10 115 18 47 16 76 17 98 3 7 -4 18 -4 25 1
14 11 69 10 177 -2 41 -5 85 -8 97 -8 13 1 21 -3 18 -8 -3 -4 11 -13 32 -18
28 -8 39 -7 45 2 7 11 9 10 12 -13 0 -5 17 -21 38 -35 22 -15 46 -45 63 -78
32 -67 27 -118 -21 -188 -19 -27 -34 -53 -34 -59 0 -5 -5 -10 -12 -10 -11 0
-29 -14 -66 -52 -9 -10 -24 -18 -34 -18 -27 0 -30 -17 -6 -39 12 -12 16 -21
10 -21 -7 0 -12 -6 -12 -14 0 -10 14 -16 42 -18 34 -2 45 -8 55 -28 7 -14 13
-22 13 -18 0 11 54 -46 56 -59 1 -7 10 -20 19 -29 9 -9 24 -34 33 -55 9 -22
20 -39 24 -39 4 0 6 -12 4 -27 -2 -16 -1 -22 1 -15 2 6 9 12 14 12 13 0 11
-37 -2 -46 -11 -6 -10 -25 8 -147 4 -30 9 -38 22 -34 14 3 21 -9 35 -60 11
-36 22 -60 25 -54 4 5 15 -3 26 -19 20 -30 38 -35 108 -30 15 1 27 -3 27 -9 0
-6 7 -11 15 -11 19 0 42 -40 23 -40 -8 -1 -5 -7 7 -16 12 -9 31 -13 46 -10 29
5 66 -24 55 -43 -4 -5 2 -15 13 -20 27 -15 82 -134 80 -174 -3 -58 -30 -137
-56 -165 -7 -7 -13 -22 -13 -33 0 -10 -6 -19 -14 -19 -7 0 -25 -18 -40 -40
-29 -44 -35 -65 -10 -34 15 19 16 19 8 -1 -10 -29 -12 -115 -2 -121 15 -9 8
-25 -14 -34 -18 -7 -19 -9 -5 -9 28 -1 20 -27 -18 -55 -30 -23 -35 -33 -35
-67 0 -21 5 -39 10 -39 18 0 12 -70 -6 -77 -30 -11 -74 -65 -74 -90 0 -13 -5
-45 -12 -70 -10 -40 -9 -47 5 -55 10 -5 17 -15 17 -23 0 -23 -20 -28 -41 -9
-12 10 -19 12 -19 5 0 -6 -10 -11 -22 -10 -45 4 -58 -1 -58 -22 0 -18 -3 -19
-15 -9 -20 17 -35 4 -35 -31 0 -37 17 -44 56 -24 48 25 61 18 30 -14 l-28 -30
27 -25 c26 -24 26 -26 7 -26 -11 0 -24 -6 -28 -12 -6 -9 -10 -5 -14 12 -4 18
-14 26 -33 28 -25 3 -27 1 -27 -34 0 -45 -42 -93 -66 -73 -11 9 -14 8 -14 -5
0 -9 8 -16 19 -16 10 0 21 -7 25 -15 3 -8 12 -15 20 -15 12 0 36 -47 36 -71 0
-18 -21 -8 -30 14 -6 14 -9 17 -9 6 -1 -12 -8 -15 -25 -12 -13 3 -27 0 -30 -6
-4 -6 -24 -11 -45 -11 -34 0 -39 -3 -44 -27 -6 -34 -1 -43 24 -43 17 0 18 -3
9 -21 -11 -20 -12 -20 -25 -2 -13 17 -14 17 -29 -2 -9 -11 -15 -30 -12 -42 2
-15 -2 -23 -10 -23 -8 0 -14 -3 -14 -7 0 -14 17 -34 26 -32 5 1 28 1 52 0 35
-1 44 -5 53 -25 15 -33 34 -23 48 25 7 22 15 37 20 35 4 -3 5 9 3 27 -5 29 -3
31 12 18 9 -8 15 -20 12 -28 -3 -7 0 -13 7 -13 6 0 1 -7 -11 -16 -26 -18 -31
-49 -6 -40 9 3 22 6 30 6 8 0 14 9 14 19 0 10 7 22 16 25 8 3 12 2 9 -4 -7
-12 -3 -12 20 -4 11 5 13 9 5 14 -8 5 -8 14 0 35 10 26 12 27 29 11 17 -16 19
-16 24 4 3 11 1 22 -4 25 -4 3 -6 12 -3 19 3 8 0 17 -5 21 -6 3 -9 11 -5 16 3
5 1 16 -6 24 -7 9 -8 15 0 20 17 10 28 -3 23 -28 -4 -20 -3 -21 10 -4 16 19
42 23 53 6 3 -6 14 2 25 20 23 38 23 45 3 66 -12 11 -14 23 -8 43 4 15 8 35 8
44 1 25 21 22 22 -3 1 -23 20 -46 30 -36 4 3 8 18 10 32 1 14 8 32 14 40 6 8
10 24 8 37 -2 17 2 23 17 23 29 0 45 13 38 31 -4 10 -1 15 8 14 36 -5 57 20
50 63 -1 9 2 17 7 17 5 0 17 16 28 35 10 20 25 34 34 32 11 -1 14 6 13 26 -2
27 10 36 22 17 9 -15 38 -12 32 3 -3 8 -1 20 3 28 5 8 4 19 -3 27 -10 12 -6
13 21 8 31 -7 32 -7 32 28 0 26 4 36 16 36 9 0 12 5 8 13 -5 8 -2 7 9 -2 18
-15 27 -12 31 11 6 26 18 48 26 43 4 -2 10 14 13 37 3 22 15 54 26 69 12 16
22 38 22 51 1 17 2 19 6 5 2 -9 9 -15 14 -12 5 4 5 15 -2 27 -10 18 -9 20 5
15 12 -5 16 0 16 18 0 14 5 25 11 25 6 0 9 7 5 15 -3 8 -2 15 3 15 4 0 16 19
27 43 10 23 22 45 27 48 5 4 9 22 10 42 1 25 6 37 19 40 10 3 18 14 18 27 0
11 5 18 10 15 6 -3 10 -2 10 3 0 15 -47 34 -68 28 -24 -8 -59 21 -44 36 14 14
92 -1 99 -18 3 -8 9 -11 14 -8 5 3 9 0 9 -5 0 -6 5 -11 11 -11 5 0 8 4 5 9 -3
5 5 20 18 34 31 34 60 89 79 152 12 40 19 50 35 48 15 -2 19 2 15 16 -3 10 0
22 6 25 6 4 11 2 11 -5 0 -6 11 0 25 15 14 15 23 31 20 36 -11 17 15 61 33 58
12 -2 42 22 85 67 37 38 67 73 67 77 0 5 5 8 10 8 6 0 18 8 28 18 19 18 41 37
132 113 116 97 264 181 365 209 28 7 52 17 56 22 9 13 288 13 354 -1 91 -19
174 -50 238 -90 102 -63 181 -125 204 -160 40 -59 27 -165 -27 -216 -26 -25
-40 -30 -95 -33 l-65 -4 -52 56 c-28 31 -58 56 -66 56 -8 0 -12 6 -9 14 11 27
-63 67 -127 69 -19 0 -33 3 -31 6 7 12 -90 6 -102 -5 -10 -10 -5 -17 24 -34
32 -19 35 -24 22 -33 -9 -7 -14 -17 -12 -24 7 -19 -43 -63 -72 -63 -31 0 -55
41 -37 63 6 7 9 22 6 34 -4 15 0 22 18 26 40 11 3 32 -55 32 -89 -1 -115 -8
-158 -42 -43 -34 -55 -40 -44 -23 3 5 0 7 -9 4 -8 -3 -13 -11 -10 -19 3 -7 -4
-15 -18 -18 -26 -7 -97 -72 -124 -111 -9 -14 -23 -26 -30 -26 -8 0 -14 -4 -14
-8 0 -4 -16 -14 -36 -21 -19 -7 -40 -23 -46 -37 -6 -13 -14 -21 -18 -19 -4 3
-13 -2 -20 -10 -11 -13 -10 -15 6 -10 10 4 6 -1 -9 -10 -15 -9 -25 -20 -22
-25 6 -9 -8 -14 -28 -11 -5 1 -6 -8 -2 -19 5 -16 3 -19 -11 -13 -12 4 -15 3
-10 -5 7 -11 -56 -87 -65 -78 -2 2 -5 -5 -5 -17 -1 -12 -15 -37 -32 -55 -16
-17 -42 -55 -57 -84 -15 -29 -32 -57 -39 -63 -7 -5 -32 -46 -55 -90 -24 -44
-46 -84 -51 -90 -14 -18 -22 -75 -11 -75 18 0 12 -32 -13 -75 -16 -29 -30 -40
-47 -41 -42 -1 -47 -3 -52 -24 -3 -11 -1 -18 4 -14 5 3 9 0 9 -5 0 -6 -4 -11
-9 -11 -11 0 -26 -47 -31 -95 l-1 -20 -10 20 c-7 15 -8 12 -4 -15 3 -24 2 -30
-4 -20 -11 16 -13 12 -58 -118 -29 -83 -24 -130 15 -147 29 -13 30 -77 2 -123
-25 -40 -25 -42 0 -42 11 0 20 -4 20 -9 0 -5 3 -22 6 -38 5 -24 0 -36 -20 -56
-28 -28 -34 -57 -12 -57 15 0 26 -21 26 -52 0 -10 7 -26 15 -35 14 -14 14 -16
-2 -28 -15 -11 -15 -15 -4 -29 7 -9 25 -16 39 -16 14 0 22 -3 19 -7 -4 -3 12
-20 34 -36 36 -26 53 -31 132 -38 96 -8 112 -5 104 16 -6 13 26 45 44 45 6 0
9 -7 5 -15 -3 -9 0 -15 8 -15 8 0 17 11 20 25 5 20 13 25 39 25 34 1 74 18 79
35 2 5 9 9 15 7 8 -2 15 13 19 38 7 42 13 46 44 30 22 -12 53 -2 47 14 -5 12
12 31 29 31 14 0 75 55 90 81 6 10 21 20 33 22 11 2 21 8 21 14 0 13 47 58 60
58 5 0 12 11 16 25 3 14 10 22 15 19 5 -3 9 0 9 5 0 6 6 11 13 11 6 0 21 14
32 30 11 16 23 30 28 30 4 0 7 5 7 10 0 6 12 23 26 38 14 15 39 46 56 70 17
23 35 42 40 42 4 0 8 4 8 9 0 6 10 21 23 35 12 13 29 36 36 50 13 23 12 28 -2
44 -21 23 -21 32 -1 32 9 0 18 -9 21 -20 7 -27 19 -25 40 8 9 15 33 47 53 72
64 80 112 158 106 169 -4 6 -4 11 1 11 9 1 83 65 83 74 0 3 -14 21 -31 41 -27
31 -29 36 -14 41 10 4 32 2 49 -4 44 -16 55 -15 64 6 9 23 69 107 108 151 17
20 47 61 68 91 20 30 46 66 57 80 38 48 84 109 164 220 44 61 94 130 112 153
17 23 32 47 32 52 2 20 127 159 161 179 43 26 131 27 176 3 55 -29 93 -113 73
-164 -10 -27 -62 -95 -121 -158 -21 -22 -38 -43 -38 -47 0 -18 -34 -46 -49
-41 -13 4 -13 3 -2 -5 10 -8 5 -19 -25 -53 -21 -24 -40 -46 -42 -49 -2 -2 -8
2 -13 10 -8 12 -9 9 -8 -10 3 -36 -17 -77 -40 -85 -23 -7 -26 -17 -11 -46 7
-13 7 -19 0 -19 -5 0 -10 7 -10 15 0 8 -4 15 -9 15 -5 0 -11 -7 -15 -15 -3 -8
0 -15 6 -15 7 0 6 -5 -2 -15 -7 -8 -16 -12 -21 -9 -5 3 -6 -2 -2 -12 5 -14 3
-15 -15 -5 -17 9 -19 8 -15 -9 3 -11 10 -20 16 -20 6 0 7 -3 4 -7 -4 -3 -17 2
-28 13 -22 19 -22 19 -10 -4 11 -20 10 -26 -6 -38 -10 -7 -22 -14 -27 -14 -4
0 -6 -9 -3 -21 3 -12 3 -18 0 -15 -3 3 -19 -2 -35 -10 -24 -12 -27 -18 -17
-30 6 -8 9 -14 5 -14 -30 0 -56 -18 -50 -35 4 -9 0 -15 -10 -15 -9 0 -13 -6
-10 -15 4 -8 -7 -26 -26 -44 -21 -19 -31 -35 -27 -45 4 -9 3 -15 -1 -14 -15 3
-42 -15 -42 -28 0 -7 -20 -33 -44 -58 -24 -24 -52 -58 -61 -75 -16 -33 -12
-57 8 -44 7 4 6 -1 -2 -11 -10 -12 -16 -14 -21 -5 -10 16 -58 -27 -75 -67 -7
-17 -24 -42 -39 -57 -14 -14 -26 -30 -26 -35 0 -5 -7 -15 -15 -22 -9 -7 -23
-29 -32 -49 -10 -20 -24 -42 -33 -49 -13 -11 -13 -12 0 -6 12 6 12 4 -1 -12
-9 -10 -14 -26 -12 -34 4 -13 3 -13 -6 0 -9 12 -11 12 -17 -3 -3 -9 -13 -17
-20 -17 -13 0 -13 -4 0 -27 30 -60 29 -86 -6 -134 -64 -85 -88 -125 -112 -186
-13 -34 -22 -64 -20 -66 3 -3 -5 -23 -17 -46 -12 -23 -23 -61 -25 -84 -9 -102
-12 -181 -8 -164 8 25 24 21 24 -6 0 -18 6 -23 30 -25 46 -4 140 27 140 45 0
11 6 14 25 9 14 -4 25 -2 25 2 0 5 18 12 41 15 36 5 73 21 194 85 34 18 112
95 200 196 33 38 78 89 100 115 35 40 105 125 127 156 4 6 20 26 36 45 16 19
48 62 72 94 43 59 55 74 115 145 17 20 50 62 74 93 91 121 150 153 233 127 49
-16 108 -85 108 -127 0 -67 -97 -207 -234 -337 -31 -31 -86 -111 -86 -127 0
-8 -11 -25 -25 -38 -14 -13 -25 -31 -25 -40 0 -9 -9 -26 -20 -38 -11 -12 -20
-28 -20 -37 0 -8 -4 -15 -10 -15 -5 0 -10 -8 -10 -19 0 -29 -40 -73 -61 -68
-10 3 -26 -1 -36 -9 -16 -12 -16 -13 -1 -14 9 0 20 -4 23 -10 3 -5 0 -7 -9 -4
-10 4 -13 0 -10 -13 3 -10 -5 -31 -17 -47 -18 -23 -27 -27 -51 -22 -22 4 -32
0 -46 -17 -45 -59 -243 -241 -295 -272 -32 -19 -61 -35 -63 -35 -3 0 -33 -13
-67 -29 -112 -53 -224 -74 -382 -75 -77 0 -155 4 -173 8 -40 10 -103 42 -96
48 9 10 -48 39 -77 40 -16 1 -27 3 -24 6 3 3 -1 12 -8 21 -17 20 -30 54 -18
46 18 -11 20 12 5 56 -9 24 -18 46 -21 49 -4 3 -3 -4 1 -15 7 -20 7 -20 -12 0
-16 17 -21 41 -12 53 2 1 3 6 4 11 0 5 4 13 9 17 4 4 7 27 7 51 0 41 -1 43
-22 31 -11 -7 -33 -25 -48 -40 -15 -16 -33 -28 -39 -28 -7 0 -30 -18 -51 -40
-21 -22 -47 -40 -57 -40 -10 0 -34 -10 -53 -22 -65 -39 -101 -58 -111 -58 -6
0 -25 -6 -42 -14 -18 -7 -63 -24 -100 -36 -85 -27 -238 -30 -307 -6 -25 9 -52
16 -61 16 -20 0 -69 23 -69 33 0 4 -11 7 -25 7 -14 0 -25 5 -25 11 0 6 -7 8
-15 5 -9 -3 -18 1 -21 9 -8 20 -54 20 -54 0 0 -8 -2 -15 -4 -15 -2 0 -12 -3
-22 -7 -12 -4 -15 -3 -10 5 4 8 -3 16 -18 22 -30 11 -35 44 -9 58 15 9 15 11
-1 27 -10 10 -22 30 -27 44 -8 20 -12 23 -19 11 -15 -23 -12 -43 5 -36 11 4
14 -1 12 -22 -2 -15 -6 -33 -10 -38 -3 -6 5 -26 18 -44 19 -25 22 -36 13 -42
-10 -5 -10 -10 -1 -19 6 -6 9 -18 5 -27 -4 -11 -9 -3 -18 24 -10 34 -12 36
-13 12 -1 -32 -36 -47 -70 -28 -28 14 -39 6 -34 -24 6 -31 -14 -43 -33 -20
-11 14 -17 15 -20 7 -4 -8 -26 -13 -62 -13 -44 0 -53 -3 -44 -12 7 -7 12 -21
13 -33 0 -11 3 -14 6 -7 2 6 22 12 43 12 22 0 40 5 43 13 3 8 7 7 12 -5 8 -20
-14 -47 -33 -40 -7 2 -18 -1 -25 -6 -14 -11 -164 13 -184 30 -9 7 -13 7 -13
-1 0 -6 -6 -11 -14 -11 -8 0 -16 -7 -20 -15 -6 -18 -32 -20 -42 -4 -3 6 0 15
7 20 7 4 10 11 6 15 -4 4 -16 -5 -28 -20 -16 -21 -27 -26 -45 -22 -19 5 -24 2
-24 -14 0 -22 -7 -25 -29 -11 -8 5 -11 16 -6 30 5 17 14 21 51 21 29 0 43 4
39 11 -5 6 -27 8 -62 3 -38 -4 -62 -2 -79 7 -21 11 -27 11 -34 -1 -6 -9 -6
-16 0 -18 16 -6 0 -22 -21 -22 -10 0 -19 7 -19 15 0 8 -4 15 -10 15 -5 0 -19
9 -30 20 -16 16 -17 20 -5 21 8 1 20 2 27 3 21 2 20 26 -1 26 -22 0 -28 14
-10 26 13 7 60 -15 54 -26 -6 -10 95 -19 115 -11 20 8 23 68 4 75 -8 3 -25 1
-38 -4 -13 -5 -27 -6 -30 -3 -3 4 -6 1 -6 -6 0 -8 -16 -12 -47 -11 -27 1 -104
-3 -173 -9 -98 -7 -128 -7 -140 3 -21 18 -80 46 -97 46 -8 0 -11 5 -7 12 4 6
3 8 -3 5 -13 -8 -83 12 -83 24 0 15 -43 28 -57 17 -7 -6 -19 -5 -33 2 -26 14
-34 8 -25 -19 4 -14 16 -21 43 -23 21 -2 36 -8 35 -14 -3 -13 29 -13 38 -1 4
5 15 7 25 5 16 -3 15 -6 -9 -19 -27 -15 -28 -17 -12 -33 14 -13 15 -19 5 -31
-16 -19 -61 -20 -54 -2 3 8 -2 20 -11 27 -14 12 -18 11 -25 0 -7 -12 -13 -10
-33 8 -13 12 -29 22 -35 22 -15 0 -16 16 -2 25 15 9 12 42 -4 48 -10 4 -13 1
-9 -9 5 -14 1 -14 -32 0 -21 9 -39 16 -41 16 -2 0 -4 5 -4 10 0 14 33 12 49
-2 11 -10 13 -10 7 0 -4 6 -3 12 3 12 5 0 8 18 6 40 -5 43 8 53 25 20 15 -28
30 -25 30 6 0 17 -4 24 -13 21 -8 -3 -14 5 -15 21 -3 32 -12 43 -12 13 0 -18
-3 -20 -17 -12 -13 7 -20 5 -29 -7 -11 -15 -14 -14 -25 11 -10 23 -18 27 -51
27 -21 0 -38 5 -38 10 0 6 7 10 15 10 8 0 15 5 15 10 0 6 7 10 16 10 8 0 12 5
9 10 -3 6 -1 10 5 10 6 0 14 -10 19 -22 7 -18 8 -12 7 23 0 26 -4 45 -7 43 -6
-4 -22 37 -24 61 0 6 -4 16 -9 23 -4 7 -5 16 -2 19 3 3 -2 12 -11 18 -13 9
-16 25 -14 61 1 27 7 52 13 55 12 7 2 29 -13 29 -5 0 -9 -7 -9 -15 0 -8 -4
-15 -10 -15 -5 0 -10 2 -10 5 0 11 33 70 42 76 5 3 9 8 8 10 -1 2 1 21 5 42 8
41 25 34 25 -10 0 -14 6 -23 15 -23 13 0 14 4 5 21 -6 11 -9 25 -6 32 2 7 5 4
5 -6 1 -28 21 -9 21 19 0 14 -4 23 -9 19 -5 -3 -13 0 -17 6 -3 6 6 21 21 33
33 26 42 81 16 95 -9 5 -12 13 -7 18 5 4 11 2 13 -4 3 -7 8 -13 12 -13 12 0
-1 80 -13 80 -6 0 0 9 14 20 18 13 28 16 37 8 10 -8 13 -3 13 21 0 17 5 31 10
31 6 0 10 -9 10 -21 0 -11 4 -17 10 -14 6 4 10 15 8 25 -2 11 5 25 16 33 13 9
16 20 12 35 -7 20 -9 20 -22 7 -23 -23 -30 -18 -8 6 14 16 28 20 60 17 30 -2
40 0 37 10 -3 6 -9 12 -13 12 -12 0 -40 29 -40 41 0 5 10 9 23 9 13 0 27 3 31
8 4 4 11 7 16 7 17 0 70 46 70 61 0 8 4 13 9 10 16 -10 21 26 9 66 -10 35 -10
41 5 50 9 5 17 15 17 23 0 7 14 18 30 24 24 8 30 16 30 39 0 19 12 42 39 71
33 36 40 39 51 26 11 -14 14 -13 27 5 8 12 12 28 8 38 -5 13 -8 14 -14 3 -6
-9 -11 -10 -15 -2 -10 15 -46 14 -46 -1 -1 -8 -5 -7 -13 4 -7 9 -26 20 -41 24
-15 3 -34 17 -43 30 -8 13 -23 24 -33 24 -14 0 -18 7 -16 33 1 29 -2 32 -30
33 -17 1 -43 4 -57 8 -16 4 -27 2 -27 -4 0 -5 4 -10 9 -10 5 0 5 -15 2 -32 -8
-38 -41 -53 -41 -19 0 14 -5 19 -15 15 -9 -4 -13 -13 -10 -23 4 -14 -2 -16
-40 -13 -28 3 -45 0 -45 -7 0 -6 10 -11 21 -11 18 0 20 -2 9 -15 -9 -11 -22
-14 -42 -10 -17 4 -28 2 -28 -4 0 -6 5 -11 11 -11 8 0 7 -5 -2 -16 -7 -8 -21
-13 -31 -11 -13 4 -18 0 -18 -15 0 -13 -6 -18 -17 -16 -11 2 -17 11 -15 21 2
12 -4 17 -23 17 -14 0 -25 -4 -25 -10 0 -5 5 -10 10 -10 6 0 10 -18 10 -40 0
-22 -4 -40 -10 -40 -5 0 -10 -18 -10 -40 0 -31 4 -40 18 -40 10 -1 4 -6 -14
-14 -39 -17 -49 -33 -35 -50 9 -10 8 -15 -5 -20 -9 -3 -20 -3 -26 0 -14 9 -29
-17 -22 -38 7 -22 -4 -23 -28 -1 -10 9 -18 11 -18 5 0 -6 -3 -17 -6 -26 -5
-13 1 -16 25 -16 17 0 31 -4 31 -9 0 -10 -34 -21 -67 -21 -24 0 -28 -11 -14
-38 4 -9 11 -29 15 -44 8 -36 -24 -56 -62 -39 -28 13 -44 5 -22 -10 11 -8 8
-8 -10 -3 -23 6 -24 6 -10 -12 8 -10 19 -22 25 -26 6 -5 5 -12 -3 -20 -9 -9
-12 -9 -12 0 0 7 -4 12 -10 12 -5 0 -10 -12 -10 -26 0 -25 -50 -84 -71 -84 -5
0 -9 -7 -9 -16 0 -9 -11 -25 -25 -35 -13 -11 -22 -26 -19 -34 3 -8 0 -27 -7
-43 -9 -22 -18 -28 -33 -25 -15 3 -17 2 -8 -5 21 -14 4 -61 -24 -68 -13 -3
-24 -13 -24 -21 0 -8 -4 -12 -9 -9 -5 3 -14 -1 -21 -9 -7 -8 -23 -15 -37 -15
-14 0 -22 -4 -18 -11 9 -13 -15 -70 -26 -63 -5 2 -30 -12 -56 -33 -43 -34 -48
-42 -45 -74 2 -29 -2 -39 -22 -53 -15 -9 -26 -23 -26 -31 0 -8 -9 -15 -20 -15
-11 0 -20 -5 -20 -10 0 -6 -6 -10 -12 -9 -33 4 -41 -1 -28 -16 9 -11 10 -18 1
-29 -17 -20 -61 -27 -61 -10 0 20 -33 -2 -46 -29 -12 -27 -31 -33 -37 -10 -3
10 -5 3 -6 -14 -1 -29 2 -33 27 -34 23 -2 24 -2 5 -6 -13 -2 -23 -11 -23 -19
0 -8 -4 -14 -9 -14 -5 0 -22 -3 -39 -6 -24 -5 -31 -2 -35 12 -4 15 -7 13 -18
-13 -10 -24 -20 -33 -36 -33 -20 0 -23 -5 -23 -35 0 -33 -2 -35 -20 -25 -15 8
-27 7 -48 -3 -60 -32 -81 -39 -91 -33 -18 11 -81 -24 -81 -45 0 -11 3 -19 8
-19 4 0 7 -18 7 -40 0 -22 -3 -40 -7 -40 -5 0 -8 9 -8 20 0 11 -7 20 -15 20
-8 0 -20 -9 -27 -20 -10 -16 -24 -20 -70 -20 -31 0 -60 5 -63 10 -4 6 -11 7
-17 4 -7 -4 -6 -9 1 -14 13 -7 4 -40 -10 -40 -5 0 -12 15 -17 33 -10 37 -45
60 -82 52 -24 -6 -23 -5 5 15 17 11 24 20 17 20 -7 0 -21 7 -29 16 -14 14 -13
15 21 9 24 -5 36 -3 36 4 0 6 -4 11 -10 11 -5 0 -10 5 -10 11 0 5 5 7 12 3 7
-4 8 -3 4 4 -9 15 -6 15 38 -3 20 -8 36 -20 36 -25 0 -20 18 -9 24 14 4 15 14
26 29 28 21 3 20 4 -11 26 -18 13 -32 20 -31 15 3 -19 -2 -33 -12 -33 -5 0 -7
5 -4 10 4 6 -5 10 -19 10 -14 0 -26 -4 -26 -10 0 -5 -8 -10 -18 -10 -10 0 -22
-4 -27 -9 -6 -4 -31 -14 -57 -21 -39 -10 -47 -17 -46 -34 0 -11 -2 -35 -6 -53
-5 -27 -2 -34 16 -44 20 -11 20 -13 5 -24 -24 -17 -22 -20 20 -20 32 0 39 -4
41 -24 4 -27 -16 -45 -34 -30 -9 7 -19 6 -33 -3 -18 -11 -23 -10 -35 7 -20 26
-20 60 -1 79 20 19 19 27 -2 19 -15 -5 -16 -3 -5 8 17 18 15 46 -4 53 -8 3
-13 10 -10 15 6 9 -16 21 -40 21 -9 0 -12 -5 -9 -11 4 -6 -1 -5 -12 2 -15 9
-28 9 -51 1 -22 -7 -34 -8 -38 0 -6 9 -24 8 -101 -8 -25 -5 -33 -3 -33 7 0 10
-17 14 -62 15 -82 1 -137 13 -168 36 -15 12 -33 17 -47 13 -16 -4 -23 -1 -23
10 0 8 -5 15 -10 15 -6 0 -10 -8 -8 -17 3 -17 -1 -18 -48 -14 -8 0 -12 6 -8
12 3 6 15 9 25 6 11 -3 19 -1 19 4 0 5 -5 9 -11 9 -5 0 -8 4 -5 9 3 5 -4 11
-17 15 -18 5 -20 8 -7 16 12 8 11 10 -7 10 -16 0 -23 -6 -23 -19 0 -12 8 -21
23 -24 19 -4 18 -4 -5 -6 -16 0 -28 4 -28 9 0 14 -23 13 -52 -3 -14 -7 -23
-18 -20 -25 2 -6 -2 -12 -10 -12 -7 -1 -1 -8 15 -16 15 -8 27 -23 27 -34 0
-11 7 -20 15 -20 14 0 13 3 -1 25 -10 15 -12 25 -5 25 6 0 11 6 11 14 0 14 29
30 38 21 3 -3 0 -5 -6 -5 -7 0 -12 -4 -12 -10 0 -5 7 -10 15 -10 8 0 15 -5 15
-10 0 -6 -7 -13 -15 -16 -8 -4 -15 -14 -15 -23 0 -15 -50 -51 -71 -51 -5 0 -9
14 -9 31 0 18 -4 28 -10 24 -6 -4 -8 -10 -6 -14 3 -4 1 -25 -5 -45 -10 -34
-12 -36 -27 -23 -9 8 -26 17 -37 19 -12 2 -21 13 -23 26 -2 12 -8 22 -13 22
-11 0 -11 0 2 -41 17 -48 30 -64 40 -47 5 8 8 -5 8 -32 0 -25 -3 -39 -6 -32
-6 14 -83 17 -83 2 0 -5 -7 -10 -15 -10 -8 0 -15 7 -15 15 0 8 -5 15 -11 15
-5 0 -9 -8 -8 -17 4 -24 -10 -63 -22 -63 -5 0 -9 12 -9 27 0 26 0 26 -21 7
-21 -19 -21 -18 -45 9 -13 16 -24 24 -24 18 0 -6 -12 -10 -27 -9 -16 1 -34 0
-42 -3 -9 -2 -17 10 -25 34 -10 34 -27 50 -76 73 -8 4 -23 14 -32 22 -16 13
-18 13 -26 -8 -7 -19 -10 -20 -15 -7 -3 9 0 18 9 21 10 4 13 13 9 26 -5 16 -2
20 14 20 12 0 21 -4 21 -8 0 -5 20 -9 44 -8 43 0 44 0 35 25 -12 31 -6 47 20
54 12 3 19 1 15 -4 -6 -11 26 -12 43 -1 7 4 11 21 10 36 -2 25 4 32 46 54 26
14 47 31 47 39 0 9 -5 11 -12 7 -26 -15 -103 -68 -108 -74 -7 -8 -74 -55 -80
-56 -3 0 -25 -6 -50 -14 -25 -7 -49 -13 -53 -12 -5 2 -6 -2 -2 -8 3 -6 -4 -10
-17 -10 -13 0 -29 -5 -35 -11 -5 -5 -46 -19 -89 -30 -92 -23 -210 -20 -261 6
-18 9 -41 14 -52 10 -10 -3 -23 1 -31 10 -7 8 -22 15 -34 15 -18 0 -19 2 -6
11 12 9 11 10 -7 6 -16 -3 -23 0 -23 9 0 8 -9 14 -20 14 -11 0 -20 5 -20 11 0
5 -4 7 -10 4 -5 -3 -25 16 -44 42 -22 31 -43 49 -57 50 -12 1 -26 8 -30 15 -7
10 -9 10 -9 -2 0 -24 -16 -41 -31 -35 -9 3 -24 26 -34 51 -15 36 -20 42 -28
29 -5 -9 -6 -23 -3 -30 4 -12 2 -13 -14 -2 -11 6 -20 21 -20 32 0 12 -5 26
-11 32 -12 12 -3 37 11 28 14 -9 18 19 9 70 -15 91 -23 109 -56 125 -35 17
-60 49 -45 59 5 3 12 27 15 54 6 45 6 47 -12 37 -11 -5 -22 -10 -25 -10 -12 0
-6 29 9 44 14 13 14 16 -3 25 -15 8 -24 5 -41 -11 -17 -15 -26 -17 -34 -9 -8
8 -6 11 6 11 34 0 -1 95 -39 104 -13 4 -24 11 -24 17 0 6 -9 22 -20 36 -11 14
-20 21 -20 14 0 -6 -9 -11 -20 -11 -12 0 -20 7 -20 18 0 14 8 17 40 17 22 0
40 -3 40 -7 0 -19 17 -5 27 23 16 42 -9 68 -64 66 -30 -2 -42 3 -55 23 -21 30
-22 37 -5 43 6 2 4 3 -6 1 -23 -3 -16 20 7 24 11 3 21 -6 29 -27 13 -37 24
-40 29 -8 4 32 32 28 36 -5 2 -20 9 -28 23 -28 23 0 40 38 32 69 -3 12 0 28 7
36 10 13 9 15 -9 15 -11 0 -21 -4 -21 -10 0 -13 -37 -13 -45 1 -5 6 -13 3 -22
-10 -14 -21 -43 -29 -43 -12 0 16 -40 23 -55 11 -8 -6 -19 -9 -25 -5 -5 3 -10
1 -10 -4 0 -6 -6 -11 -14 -11 -22 0 -31 -21 -15 -34 19 -15 39 -52 39 -71 0
-10 10 -15 33 -15 31 0 32 -2 32 -38 l0 -39 -45 -1 c-55 0 -84 -29 -75 -74 5
-21 2 -30 -10 -34 -9 -4 -24 -23 -35 -44 -26 -50 -48 -57 -77 -25 -13 14 -21
30 -17 37 16 25 12 82 -6 108 -41 57 -123 17 -91 -44 7 -13 11 -41 10 -62 -2
-22 4 -60 15 -87 15 -38 17 -53 8 -72 -14 -30 -26 -31 -76 -5 -37 18 -40 18
-52 2 -7 -9 -8 -18 -3 -20 12 -5 12 -39 -1 -47 -5 -3 -21 5 -34 18 -14 14 -31
27 -38 29 -8 3 -5 9 10 17 25 14 29 49 6 58 -9 3 -20 15 -24 27 -7 18 -9 18
-9 3 -1 -11 -8 -18 -18 -16 -44 4 -65 -4 -24 -10 46 -6 57 -16 42 -40 -8 -12
-14 -12 -42 2 -23 11 -38 13 -51 6 -20 -11 -25 -59 -7 -59 7 0 9 -9 6 -22 -4
-12 -1 -28 5 -35 7 -9 7 -13 -1 -13 -6 0 -11 -13 -11 -30 0 -33 -14 -38 -44
-15 -24 18 -42 6 -51 -37 -4 -18 -15 -32 -26 -35 -10 -3 -19 -14 -19 -24 0
-11 -4 -19 -10 -19 -14 0 -13 23 2 38 9 9 7 13 -6 18 -23 9 -33 -7 -47 -76
-10 -51 -13 -55 -41 -57 -17 -1 -36 -7 -43 -13 -10 -8 -19 -8 -34 -1 -16 9
-21 7 -26 -9 -3 -10 -1 -28 4 -39 6 -11 11 -27 11 -36 0 -17 -45 -39 -73 -36
-9 1 -20 -5 -23 -13 -3 -9 -13 -16 -21 -16 -8 0 -11 5 -8 10 3 6 2 10 -4 10
-5 0 -13 -4 -16 -10 -3 -5 -1 -10 4 -10 6 0 11 -7 11 -16 0 -11 -6 -13 -19 -9
-41 13 -84 -44 -45 -59 8 -3 14 -14 12 -23 -3 -14 -13 -18 -48 -18 -37 0 -44
-3 -42 -17 2 -12 -4 -18 -18 -18 -17 0 -20 -6 -20 -40 0 -22 5 -40 10 -40 6 0
10 9 10 21 0 11 4 18 9 15 5 -4 4 -19 -2 -36 -10 -26 -13 -28 -23 -15 -13 18
-41 20 -46 4 -6 -18 -58 -21 -58 -3 0 8 -4 14 -9 14 -4 0 -6 -11 -4 -24 6 -30
-8 -39 -41 -26 -16 6 -26 17 -26 30 0 11 -4 20 -10 20 -5 0 -10 -9 -10 -19 0
-23 -16 -37 -22 -20 -6 18 -78 2 -78 -17 0 -9 -6 -14 -12 -11 -7 2 -13 10 -13
18 0 10 -14 15 -49 16 -27 1 -52 5 -56 10 -9 11 0 103 11 103 5 0 9 -5 9 -11
0 -5 4 -7 10 -4 5 3 7 0 4 -8 -3 -8 2 -17 11 -21 13 -5 15 -1 9 17 -4 12 -9
24 -13 27 -3 3 -6 16 -6 30 1 35 -13 60 -32 60 -9 0 -14 3 -10 6 3 4 21 1 39
-5 l33 -11 -24 21 c-16 13 -33 18 -47 15 -18 -5 -21 -2 -17 14 4 14 -1 21 -21
26 -14 3 -24 10 -21 14 3 5 1 11 -5 15 -5 3 -10 1 -10 -4 0 -6 -5 -11 -11 -11
-5 0 -9 8 -7 18 2 10 -8 40 -22 66 -23 45 -23 48 -6 58 16 9 16 11 1 28 -9 10
-12 21 -7 24 12 7 7 55 -7 69 -6 6 -11 19 -11 29 0 24 -18 30 -55 18 -26 -8
-27 -9 -5 -7 17 1 29 -5 38 -22 20 -39 15 -51 -20 -50 -18 1 -25 3 -15 6 17 4
25 33 8 33 -5 0 -23 3 -40 6 -24 5 -31 3 -31 -9 0 -19 -32 -31 -60 -22 -13 4
-20 15 -20 31 0 19 -5 24 -24 24 -29 0 -43 -17 -27 -33 12 -12 15 -60 4 -70
-14 -15 -33 18 -33 60 0 30 -6 51 -20 66 -12 12 -23 32 -27 45 -3 15 -11 21
-20 17 -10 -3 -13 -1 -10 9 8 21 -17 50 -37 43 -9 -4 -16 -2 -16 3 0 5 -7 7
-15 4 -10 -4 -15 0 -15 15 0 16 8 23 30 28 34 6 38 17 13 31 -10 6 -14 16 -10
26 4 9 1 16 -6 16 -18 0 -32 -13 -32 -30 0 -8 -12 -21 -27 -28 -16 -7 -28 -18
-28 -24 0 -5 -7 -8 -14 -5 -10 4 -13 1 -10 -7 3 -7 -2 -16 -11 -20 -11 -4 -14
-13 -10 -25 3 -12 1 -21 -7 -24 -7 -2 -3 -2 10 0 19 3 22 -1 22 -32 0 -28 -4
-35 -20 -35 -19 0 -22 4 -24 33 -2 24 -24 39 -44 28 -11 -6 -22 -8 -25 -5 -3
3 -25 -11 -48 -32 -63 -58 -79 -76 -79 -91 0 -7 -10 -12 -22 -11 -27 1 -65
-18 -95 -49 l-22 -22 22 -4 c14 -3 9 -5 -13 -6 -51 -2 -64 -12 -45 -37 21 -27
18 -44 -6 -44 -16 0 -20 5 -16 20 5 19 -4 25 -28 20 -5 -1 -22 -2 -38 -2 -18
-1 -24 -4 -15 -9 10 -6 9 -9 -3 -14 -9 -3 -22 -5 -30 -3 -8 2 -13 -3 -12 -9 2
-7 -1 -13 -6 -13 -5 0 -12 -9 -16 -19 -5 -15 -15 -19 -48 -18 -43 1 -117 -21
-117 -35 0 -4 -13 -8 -29 -8 -16 0 -36 -7 -45 -15 -8 -8 -22 -15 -32 -15 -28
0 -88 -24 -97 -38 -5 -7 -17 -10 -27 -7 -9 3 -37 -1 -61 -9 -105 -35 -230 -43
-559 -37 -8 1 -22 0 -30 0 -8 0 -28 3 -45 6 -16 4 -43 8 -60 10 -78 7 -271 68
-350 111 -25 13 -65 35 -89 48 -24 13 -50 28 -58 34 -7 6 -43 36 -80 67 -37
30 -70 55 -73 55 -9 0 -27 20 -48 53 -12 19 -24 26 -34 23 -11 -5 -13 -2 -9 9
3 9 2 14 -2 11 -13 -8 -41 19 -39 38 1 11 -5 21 -13 24 -13 5 -13 3 -1 -11 11
-15 11 -17 -2 -17 -8 0 -17 13 -21 31 -3 17 -10 28 -16 24 -6 -3 -7 0 -4 9 4
11 0 16 -10 16 -9 0 -16 6 -16 13 0 9 -3 8 -9 -2 -7 -10 -11 -5 -16 18 -4 17
-11 29 -16 25 -5 -3 -9 -1 -9 4 0 5 -12 21 -26 35 -16 16 -24 33 -20 42 3 9 2
13 -4 10 -6 -3 -10 1 -10 9 0 9 -9 33 -20 53 -11 21 -20 43 -20 50 0 7 -9 22
-19 32 -19 19 -51 112 -51 149 0 10 -6 32 -14 48 -8 16 -17 52 -19 79 -3 28
-8 58 -12 67 -9 23 2 320 12 327 5 3 9 21 8 39 0 17 3 32 7 32 5 0 8 17 7 38
0 20 4 52 9 70 6 17 8 32 5 32 -3 0 1 8 11 19 10 11 14 25 10 36 -5 12 -4 16
4 11 7 -4 13 10 18 41 4 27 15 59 24 73 10 14 21 42 25 62 4 22 16 43 30 52
12 8 33 32 46 53 13 21 26 40 30 43 5 3 23 37 40 75 18 39 50 87 70 108 25 25
36 44 32 54 -5 12 -3 14 6 8 10 -6 12 8 10 65 l-4 73 35 18 c31 17 36 17 57 4
35 -23 48 -18 89 35 20 27 41 47 45 44 13 -7 22 37 10 49 -16 16 -14 47 4 67
15 16 12 37 -11 95 -7 18 -4 17 27 -6 53 -40 58 -41 52 -19 -3 11 -12 20 -19
20 -10 0 -14 15 -16 53 -2 68 -2 69 -16 92 -12 19 -13 19 -6 -4 5 -21 4 -22
-9 -10 -8 8 -13 18 -10 22 3 4 2 16 -2 25 -4 9 -9 26 -11 37 -4 31 -15 79 -21
95 -3 8 -8 24 -10 35 -2 10 -7 22 -11 25 -5 3 -9 14 -9 25 -2 37 -10 75 -16
82 -4 3 -7 19 -7 34 0 15 -5 31 -11 35 -6 3 -8 20 -5 38 3 17 6 72 7 121 1 50
7 121 14 160 8 38 11 73 9 77 -3 4 -1 8 4 8 5 0 16 28 25 63 23 88 41 137 49
137 5 0 8 7 8 15 0 8 5 15 10 15 6 0 10 7 10 15 0 8 5 15 11 15 6 0 9 7 6 15
-4 8 5 23 21 35 22 18 24 23 12 30 -13 8 -12 10 3 10 9 0 17 4 17 10 0 5 15
27 34 47 19 21 33 40 32 43 -3 12 147 185 217 248 9 9 17 22 17 29 0 6 8 14
18 17 10 4 36 22 57 41 21 20 48 38 60 41 12 3 27 16 33 29 6 13 25 31 42 40
16 8 30 19 30 23 0 4 12 13 28 20 40 18 65 34 92 60 25 23 117 77 151 87 34
11 128 72 121 79 -3 4 1 4 11 0 9 -3 17 -2 17 4 0 5 31 22 69 38 38 16 67 32
65 36 -3 5 7 8 23 9 15 0 50 11 77 24 28 12 55 21 61 18 7 -2 18 3 25 12 7 8
20 15 30 15 22 0 107 37 115 50 3 6 26 10 51 10 24 0 44 4 44 9 0 5 8 7 19 4
10 -3 22 0 25 6 4 6 21 11 37 11 16 0 49 10 72 21 23 12 60 22 82 22 22 -1 45
4 52 9 7 5 16 8 20 5 9 -5 80 5 158 23 28 6 91 11 140 11 51 0 100 6 112 13
29 15 434 12 583 -5z m1130 -489 c0 -5 -4 -10 -10 -10 -5 0 -10 5 -10 10 0 6
5 10 10 10 6 0 10 -4 10 -10z m-1450 -210 c0 -5 -4 -10 -10 -10 -5 0 -10 5
-10 10 0 6 5 10 10 10 6 0 10 -4 10 -10z m-744 -200 c30 0 41 -24 21 -44 -17
-17 -25 -19 -98 -17 l-56 1 1 34 c1 30 3 32 22 24 15 -7 30 -6 50 4 16 7 31
10 32 6 2 -4 15 -8 28 -8z m504 0 c0 -5 -4 -10 -9 -10 -6 0 -13 5 -16 10 -3 6
1 10 9 10 9 0 16 -4 16 -10z m5603 -46 c52 -7 65 -25 42 -60 -18 -29 -87 -48
-135 -39 -19 4 -51 6 -70 6 -43 -1 -63 11 -58 34 4 22 17 29 93 48 74 19 72
18 128 11z m126 -18 c9 -10 9 -16 1 -21 -16 -10 -40 2 -40 20 0 19 24 20 39 1z
m-6419 -26 c0 -5 -4 -10 -10 -10 -5 0 -10 5 -10 10 0 6 5 10 10 10 6 0 10 -4
10 -10z m-316 -75 c-4 -8 -8 -15 -10 -15 -2 0 -4 7 -4 15 0 8 4 15 10 15 5 0
7 -7 4 -15z m-410 -140 c3 -8 13 -15 21 -15 25 0 16 -54 -10 -58 -28 -4 -62
52 -45 73 16 19 26 19 34 0z m-75 -130 c17 -20 31 -41 31 -47 0 -6 8 -16 17
-23 15 -11 14 -14 -14 -28 l-30 -16 -21 37 c-24 44 -39 112 -24 112 5 0 24
-16 41 -35z m7619 -180 c-11 -11 -38 8 -38 26 0 19 1 19 22 -1 12 -11 19 -22
16 -25z m-5561 11 c-4 -10 -13 -13 -23 -9 -15 6 -15 7 1 20 21 15 30 10 22
-11z m-181 -51 c-25 -19 -36 -19 -36 0 0 10 10 15 28 15 26 -1 26 -1 8 -15z
m-461 -45 c11 -17 -5 -32 -21 -19 -8 6 -14 15 -14 20 0 12 27 11 35 -1z m513
-49 c-4 -19 -46 -27 -62 -11 -8 8 -6 15 7 25 23 17 59 8 55 -14z m-2531 -23
c-3 -8 -6 -5 -6 6 -1 11 2 17 5 13 3 -3 4 -12 1 -19z m2323 -62 c0 -8 -4 -18
-10 -21 -5 -3 -10 3 -10 14 0 12 5 21 10 21 6 0 10 -6 10 -14z m-140 0 c0 -3
-4 -8 -10 -11 -5 -3 -10 -1 -10 4 0 6 5 11 10 11 6 0 10 -2 10 -4z m-1920
-196 c0 -25 -29 -38 -41 -19 -15 25 -10 39 16 39 18 0 25 -5 25 -20z m2260
-109 c24 -46 14 -58 -52 -64 -34 -3 -66 -3 -70 -1 -13 8 15 55 41 69 37 20 69
18 81 -4z m1040 -159 c0 -5 -11 -14 -25 -20 -14 -6 -25 -18 -25 -26 0 -13 -39
-30 -49 -21 -2 3 1 5 7 5 7 0 12 8 12 18 0 11 14 25 33 35 37 18 47 20 47 9z
m1289 -11 c12 -8 13 -14 3 -36 -13 -28 -29 -29 -45 -3 -21 33 9 60 42 39z
m-1429 -115 c0 -8 -4 -18 -10 -21 -5 -3 -10 3 -10 14 0 12 5 21 10 21 6 0 10
-6 10 -14z m-195 -57 c12 -19 -5 -23 -22 -6 -16 16 -16 17 -1 17 9 0 20 -5 23
-11z m30 -29 c3 -5 1 -10 -4 -10 -6 0 -11 5 -11 10 0 6 2 10 4 10 3 0 8 -4 11
-10z m1625 0 c0 -5 -4 -10 -10 -10 -5 0 -10 5 -10 10 0 6 5 10 10 10 6 0 10
-4 10 -10z m-2410 -31 c0 -5 -4 -9 -10 -9 -5 0 -10 7 -10 16 0 8 5 12 10 9 6
-3 10 -10 10 -16z m18365 -5 c21 -8 49 -13 62 -9 18 4 23 2 17 -6 -4 -8 -3 -9
4 -5 6 4 28 -4 49 -17 21 -12 57 -31 81 -41 23 -11 42 -23 42 -28 0 -4 6 -8
14 -8 8 0 16 -3 18 -7 2 -5 33 -34 69 -66 36 -31 77 -77 90 -102 13 -25 27
-45 31 -45 5 0 8 -6 8 -13 0 -7 15 -46 32 -87 32 -73 33 -79 32 -215 0 -105
-5 -151 -17 -185 -9 -25 -17 -53 -17 -62 0 -9 -6 -23 -13 -30 -8 -7 -17 -25
-20 -40 -4 -14 -18 -39 -31 -55 -13 -15 -29 -45 -35 -65 -7 -21 -17 -38 -22
-38 -5 0 -9 -7 -9 -16 0 -9 -5 -12 -12 -8 -8 5 -9 2 -5 -10 5 -13 3 -17 -7
-13 -8 3 -17 -2 -20 -11 -10 -26 -36 -68 -36 -58 0 5 -17 -13 -37 -40 -20 -27
-54 -64 -75 -83 -21 -18 -38 -39 -38 -46 0 -6 -10 -17 -23 -24 -12 -6 -30 -25
-39 -42 -10 -16 -25 -32 -35 -36 -26 -9 -63 -44 -57 -54 3 -5 -3 -6 -12 -2
-10 4 -15 2 -12 -3 4 -5 0 -18 -8 -29 -9 -12 -14 -14 -14 -5 0 9 -5 8 -20 -5
-10 -9 -18 -20 -17 -24 1 -3 -2 -7 -6 -8 -5 0 -24 -18 -43 -38 -19 -21 -34
-35 -34 -31 0 3 -14 -6 -31 -21 -17 -16 -34 -28 -38 -28 -5 0 -28 -17 -52 -37
-24 -21 -49 -38 -56 -38 -6 0 -13 -3 -15 -8 -1 -4 -40 -32 -85 -61 -46 -30
-83 -58 -83 -63 0 -4 -7 -8 -16 -8 -9 0 -12 -5 -8 -12 4 -6 3 -8 -3 -5 -13 8
-169 -91 -165 -104 1 -6 -2 -8 -8 -4 -6 4 -25 -4 -43 -17 -18 -14 -39 -28 -47
-31 -8 -4 -49 -29 -90 -57 -41 -27 -99 -63 -128 -80 -29 -18 -50 -36 -47 -41
4 -5 0 -7 -7 -4 -18 7 -170 -84 -165 -98 2 -7 33 -37 70 -68 80 -68 78 -67
377 -75 271 -8 371 6 560 79 178 68 297 134 552 306 193 130 232 151 281 151
98 0 177 -112 136 -193 -21 -42 -152 -154 -264 -227 -84 -55 -171 -139 -190
-182 -15 -38 -49 -56 -79 -45 -8 3 -17 3 -20 0 -3 -4 -17 -8 -32 -9 -14 -2
-50 -17 -80 -34 -45 -25 -66 -31 -107 -29 -39 2 -66 -5 -107 -25 -62 -30 -54
-26 -207 -123 -63 -40 -118 -73 -123 -73 -5 0 -16 -15 -25 -34 -20 -43 -53
-55 -160 -62 -44 -3 -93 -10 -108 -15 -22 -6 -38 -4 -65 10 -27 13 -70 20
-153 24 l-117 6 3 -27 c2 -15 6 -37 10 -49 6 -19 4 -23 -14 -23 -27 0 -38 26
-22 52 9 14 9 29 1 58 -16 59 0 85 48 75 42 -7 36 -7 120 -5 38 1 68 -3 77
-10 22 -18 90 -16 120 4 29 19 127 24 205 11 49 -8 57 0 75 63 l6 22 -238 -2
c-226 -2 -368 9 -398 32 -5 4 -28 11 -50 14 -55 10 -174 72 -206 107 -15 16
-32 29 -38 29 -7 0 -9 5 -6 10 3 6 1 10 -4 10 -6 0 -10 3 -9 8 4 10 -38 63
-45 56 -3 -3 -4 3 -3 13 0 10 -4 17 -11 16 -7 -2 -10 4 -7 12 9 23 -42 19 -66
-5 -12 -12 -24 -19 -29 -16 -4 3 -23 -5 -42 -16 -19 -12 -43 -23 -54 -25 -11
-2 -24 -8 -29 -13 -6 -6 -18 -10 -29 -10 -10 0 -15 -4 -12 -10 4 -6 -5 -10
-19 -10 -14 0 -26 -5 -26 -10 0 -6 -6 -10 -12 -8 -20 3 -88 -22 -88 -33 0 -6
-4 -8 -8 -5 -12 7 -94 -19 -86 -27 4 -4 -1 -7 -12 -8 -25 -1 -34 -3 -129 -29
-44 -12 -100 -26 -125 -31 -25 -5 -76 -18 -115 -28 -59 -16 -234 -38 -257 -33
-5 1 -8 -3 -8 -8 0 -16 -30 -12 -86 11 -42 18 -62 20 -108 15 -31 -4 -56 -12
-56 -17 0 -24 -144 -4 -230 33 -25 10 -55 20 -67 23 -13 2 -35 10 -50 18 -16
8 -41 21 -58 28 -16 8 -34 20 -38 27 -5 7 -12 10 -18 7 -5 -4 -9 -2 -9 4 0 6
-14 18 -32 27 -18 9 -38 23 -46 30 -7 7 -21 19 -30 26 -10 7 -38 39 -62 71
-25 31 -48 57 -53 57 -4 0 -6 4 -2 10 3 5 -2 18 -12 28 -37 39 -53 63 -53 78
0 8 -4 13 -8 10 -5 -3 -17 25 -27 61 -10 36 -25 67 -32 70 -8 3 -12 12 -9 19
3 7 -1 30 -9 51 -7 21 -14 32 -14 25 -1 -7 -5 -10 -11 -7 -5 3 -10 0 -11 -7
-1 -7 -4 -3 -8 10 l-6 24 -20 -29 c-11 -15 -31 -59 -45 -98 -13 -38 -26 -72
-29 -75 -4 -3 -18 -26 -31 -52 -14 -27 -29 -48 -33 -48 -5 0 -5 -4 -2 -10 3
-5 -1 -20 -9 -32 -9 -12 -16 -17 -16 -11 0 7 -20 -7 -45 -30 -25 -24 -45 -49
-45 -56 0 -7 -5 -9 -12 -5 -7 5 -9 0 -6 -14 4 -15 2 -19 -8 -15 -8 3 -14 -1
-14 -10 0 -8 -18 -33 -40 -55 -22 -22 -40 -44 -40 -49 0 -9 -65 -46 -83 -47
-5 -1 -14 -9 -21 -18 -7 -10 -17 -18 -21 -18 -4 0 -33 -12 -64 -27 -53 -26
-63 -28 -201 -28 -145 1 -145 1 -217 35 -40 19 -73 40 -73 45 0 6 -13 16 -30
23 -16 7 -43 32 -59 55 -17 23 -35 47 -40 53 -5 7 -7 15 -4 18 4 3 -2 12 -12
20 -11 8 -15 18 -10 26 5 8 4 11 -1 7 -6 -3 -15 13 -22 36 -16 58 -31 248 -21
269 5 9 6 29 3 45 -3 17 1 45 10 67 9 21 16 50 16 65 0 35 11 72 19 67 4 -3 8
7 9 22 1 15 18 59 37 98 19 39 35 76 35 82 0 7 5 12 10 12 6 0 10 5 10 11 0
10 12 38 81 184 18 39 34 72 34 75 1 3 5 13 9 22 5 10 3 32 -3 49 -14 41 -14
49 2 43 29 -11 84 70 101 148 3 15 13 33 21 42 8 8 15 23 15 33 0 10 7 27 15
37 8 10 11 24 8 30 -4 6 2 4 12 -4 17 -14 18 -14 7 7 -17 30 -15 38 5 22 15
-12 16 -12 10 5 -5 11 -1 29 9 43 35 55 25 137 -17 138 -17 0 -25 6 -27 23 -3
17 2 22 18 22 13 0 24 -8 27 -20 6 -22 28 -27 39 -9 5 8 9 8 14 -1 13 -21 21
58 17 178 -2 65 -8 116 -14 120 -6 4 -13 16 -17 27 -7 23 -94 115 -108 115 -5
0 -6 5 -2 12 5 7 3 8 -5 4 -7 -5 -20 -1 -29 7 -9 8 -33 18 -52 22 -19 4 -39
11 -45 15 -22 17 -92 21 -183 10 -75 -8 -115 -19 -177 -48 -73 -33 -94 -50
-243 -200 -145 -146 -161 -165 -151 -183 14 -28 -14 -61 -47 -55 -28 5 -98
-60 -89 -84 3 -8 3 -11 -1 -8 -3 4 -22 -14 -42 -40 -19 -26 -38 -49 -42 -52
-4 -3 -19 -29 -35 -57 -15 -29 -32 -53 -37 -53 -5 0 -8 -6 -6 -12 2 -7 -2 -15
-7 -16 -23 -8 -36 -27 -31 -45 2 -10 2 -17 -1 -14 -14 14 -78 -76 -69 -98 3
-9 0 -15 -9 -15 -9 0 -15 -9 -15 -21 0 -13 -8 -23 -21 -26 -12 -3 -18 -11 -15
-19 3 -8 1 -14 -4 -14 -15 0 -59 -71 -53 -86 7 -18 -16 -46 -33 -40 -18 7 -50
-30 -32 -37 9 -4 6 -8 -8 -12 -11 -4 -29 -21 -39 -38 -10 -18 -36 -53 -57 -78
-21 -25 -38 -52 -38 -61 0 -9 -12 -23 -26 -33 -14 -9 -23 -19 -20 -22 2 -3 1
-10 -4 -17 -34 -41 -80 -108 -80 -115 0 -5 -7 -12 -15 -15 -9 -3 -22 -21 -30
-39 -8 -19 -21 -39 -29 -47 -9 -7 -16 -18 -16 -25 0 -7 -12 -23 -27 -36 -16
-13 -37 -40 -47 -59 -11 -19 -22 -37 -25 -40 -3 -3 -15 -21 -25 -40 -11 -19
-27 -42 -37 -51 -10 -8 -21 -28 -25 -43 -3 -15 -9 -25 -12 -22 -5 6 -46 -46
-78 -100 -11 -17 -47 -72 -81 -123 -35 -50 -63 -98 -63 -105 0 -7 -9 -21 -20
-31 -11 -10 -20 -24 -20 -31 0 -8 -27 -41 -59 -74 -68 -69 -92 -74 -172 -38
-39 18 -55 34 -84 83 -33 55 -36 65 -33 125 3 53 12 81 49 152 47 92 161 268
216 332 18 22 33 45 33 52 0 6 7 17 15 24 14 11 95 128 95 136 0 2 32 51 70
108 39 58 70 109 70 114 0 4 11 21 25 37 25 30 60 81 125 179 19 29 65 99 103
154 37 56 67 104 67 107 0 2 10 16 23 30 24 28 74 109 83 138 4 9 10 17 15 17
5 0 9 7 9 15 0 8 5 15 10 15 6 0 10 7 10 15 0 8 5 15 10 15 6 0 10 6 10 13 0
8 11 24 25 37 14 13 25 28 25 33 0 5 19 37 42 71 65 95 108 176 108 202 0 14
7 27 15 30 21 8 35 67 35 146 0 62 -2 68 -31 92 -17 14 -27 26 -23 26 4 0 -7
11 -26 25 -19 14 -40 23 -48 20 -7 -2 -10 0 -7 5 6 9 -16 15 -39 11 -4 -1 -14
4 -22 10 -33 27 -163 -12 -164 -50 0 -8 -10 -28 -22 -45 -13 -17 -32 -49 -43
-71 -11 -22 -28 -47 -37 -56 -10 -9 -18 -21 -18 -27 0 -5 -27 -37 -60 -70 -33
-32 -60 -63 -60 -67 0 -4 -15 -26 -33 -49 -18 -23 -44 -58 -57 -78 -14 -21
-28 -38 -32 -38 -5 0 -8 -6 -8 -14 0 -8 -16 -33 -35 -56 -19 -23 -35 -45 -35
-49 0 -4 -9 -17 -20 -28 -10 -12 -52 -70 -92 -130 -40 -60 -113 -163 -163
-229 -49 -65 -107 -144 -127 -174 -47 -70 -115 -161 -232 -310 -23 -30 -84
-113 -135 -183 -50 -71 -119 -163 -152 -205 -33 -42 -81 -105 -107 -140 -26
-35 -59 -77 -74 -94 -16 -17 -28 -37 -28 -43 0 -16 -47 -48 -52 -35 -2 6 -23
-8 -48 -30 -25 -22 -49 -40 -53 -40 -4 0 -13 -13 -18 -30 -6 -16 -15 -30 -20
-30 -14 0 -11 10 15 54 13 23 27 52 31 66 4 14 27 52 50 86 24 33 50 74 58 90
9 16 41 56 71 89 31 33 56 66 56 73 0 7 11 17 25 22 14 5 25 15 25 21 0 7 9 4
21 -7 17 -16 22 -16 29 -4 6 8 10 19 10 24 0 4 22 36 48 70 67 85 119 167 127
199 4 15 11 30 16 33 5 2 14 24 20 47 12 47 27 69 40 61 5 -3 9 0 9 5 0 6 -9
11 -20 11 -11 0 -20 4 -20 10 0 5 6 7 13 4 13 -4 64 54 59 69 -1 4 2 7 6 7 11
0 34 49 27 60 -3 4 -26 11 -52 15 -41 6 -56 15 -105 66 -63 64 -77 97 -59 137
13 27 87 140 166 252 26 36 59 83 73 105 15 22 35 49 45 60 10 11 20 31 24 45
3 14 11 30 18 35 14 12 90 112 170 224 41 58 124 172 157 216 4 6 40 48 81 95
137 156 236 230 412 306 54 23 141 33 195 23 155 -30 242 -54 298 -82 78 -39
175 -135 214 -212 15 -29 32 -56 38 -60 5 -3 10 -19 10 -36 0 -16 4 -29 10
-29 8 0 114 90 130 110 17 22 164 125 210 147 30 14 81 38 114 54 32 16 104
39 160 50 193 40 397 12 569 -80 73 -38 187 -125 187 -142 0 -6 11 -25 24 -42
33 -44 76 -133 93 -192 10 -32 16 -106 18 -208 3 -144 10 -194 22 -159 8 21
21 13 32 -18 10 -29 9 -30 -18 -28 -36 3 -64 -19 -57 -45 2 -10 2 -16 -2 -12
-6 6 -16 -24 -43 -125 -6 -25 -15 -52 -20 -60 -5 -8 -16 -31 -25 -50 -9 -19
-32 -68 -50 -108 -19 -39 -34 -78 -34 -86 0 -8 -3 -16 -7 -18 -5 -1 -23 -34
-41 -71 -18 -38 -28 -66 -22 -62 14 9 13 -1 -2 -17 -19 -19 -59 -94 -101 -185
-5 -11 -6 -27 -2 -34 5 -7 4 -10 -2 -6 -6 4 -18 -17 -28 -48 -16 -53 -33 -79
-20 -32 5 19 5 20 -5 4 -6 -9 -8 -26 -5 -37 4 -11 2 -20 -4 -20 -6 0 -11 -6
-11 -14 0 -7 -7 -19 -15 -26 -8 -7 -15 -22 -15 -34 0 -11 -9 -32 -20 -46 -11
-14 -20 -35 -20 -47 0 -12 -4 -25 -10 -28 -5 -3 -10 -16 -10 -28 0 -12 -9 -37
-20 -55 -36 -58 -23 -191 23 -255 61 -82 193 -85 306 -6 45 31 112 108 139
159 7 14 30 45 51 70 20 25 48 65 62 90 13 25 31 53 39 62 19 21 90 159 90
173 0 6 9 17 20 25 10 8 22 26 25 42 4 15 11 30 16 33 5 4 9 15 9 26 0 13 4
18 11 13 9 -5 10 2 6 22 -3 16 -4 23 -1 16 4 -8 14 3 26 27 11 23 24 41 29 41
5 0 9 9 9 20 0 11 4 20 10 20 5 0 12 16 16 35 3 19 10 35 14 35 9 0 80 133 80
149 0 10 28 79 49 121 4 8 18 20 30 25 15 7 26 27 37 65 16 59 85 204 146 308
22 37 35 69 31 79 -4 10 -2 14 4 10 13 -8 83 83 83 107 0 10 4 15 9 12 5 -3
20 9 34 27 44 57 70 87 145 163 61 63 71 78 66 99 -7 28 -2 30 27 14 18 -9 26
-5 57 29 40 42 162 132 181 132 6 0 11 5 11 10 0 6 5 10 12 10 6 0 19 6 27 14
16 14 115 69 204 113 66 32 200 70 301 84 191 27 489 -48 594 -148 7 -7 25
-20 40 -29 38 -23 105 -105 143 -177 26 -50 33 -73 32 -116 -1 -30 -5 -57 -10
-60 -4 -3 -20 -22 -34 -41 -24 -33 -40 -43 -121 -80 -31 -15 -138 -7 -208 15
-25 8 -54 16 -65 18 -11 1 -25 6 -31 9 -7 5 -18 -14 -29 -52 -18 -58 -95 -163
-95 -128 0 21 28 112 45 144 8 15 12 31 9 35 -2 4 6 5 18 2 17 -3 19 -2 10 5
-8 5 -14 13 -15 18 -1 5 -5 8 -9 6 -5 -1 -8 4 -8 11 0 8 -19 20 -42 27 -24 8
-47 17 -53 20 -5 4 -22 9 -37 12 -21 4 -25 2 -20 -11 5 -14 4 -14 -12 -2 -15
12 -19 12 -34 -2 -9 -10 -12 -17 -7 -17 6 0 19 -7 29 -15 19 -14 19 -16 2 -28
-16 -12 -16 -14 -2 -26 19 -16 21 -42 4 -59 -9 -9 -9 -12 3 -12 9 0 5 -8 -11
-20 -14 -11 -19 -20 -12 -20 8 0 12 -6 9 -12 -2 -8 -15 -12 -30 -10 -15 2 -27
-1 -27 -7 0 -6 12 -11 27 -11 14 0 23 -3 20 -6 -4 -4 -62 -9 -129 -11 -68 -3
-129 -10 -136 -16 -16 -13 -94 -9 -103 5 -3 5 -9 -3 -12 -19 -4 -17 -17 -34
-36 -45 -20 -11 -31 -25 -33 -45 -3 -24 -8 -28 -37 -31 -23 -2 -37 2 -43 12
-11 20 -38 21 -38 1 0 -14 -17 -20 -48 -16 -6 1 -17 -10 -24 -24 -11 -24 -22
-30 -73 -37 -15 -3 -19 -10 -18 -38 1 -19 4 -45 8 -56 9 -28 -24 -43 -42 -18
-16 21 -41 12 -53 -21 -6 -15 -14 -23 -20 -20 -5 3 -10 0 -10 -9 0 -8 -20 -22
-45 -32 -25 -9 -57 -31 -70 -48 -21 -26 -27 -29 -43 -20 -16 11 -18 9 -14 -17
3 -21 0 -29 -9 -27 -7 2 -14 -3 -15 -9 -1 -7 -2 -16 -3 -20 0 -4 -6 -2 -12 4
-17 17 -36 -5 -32 -36 3 -23 2 -24 -6 -6 -8 17 -10 18 -10 3 -1 -10 -8 -18
-16 -18 -8 0 -15 -7 -15 -15 0 -8 5 -15 11 -15 6 0 9 -6 7 -12 -3 -7 -10 -13
-17 -13 -18 0 -31 -26 -31 -63 0 -18 -4 -31 -9 -28 -5 3 -12 -18 -16 -46 -4
-29 -12 -62 -18 -73 -15 -29 -10 -303 7 -377 50 -216 226 -412 426 -473 92
-28 333 -28 505 1 188 31 245 49 245 75 0 16 4 19 18 14 39 -17 62 -17 68 -2
4 11 14 15 33 11 26 -5 125 27 239 77 37 16 52 28 52 42 0 15 5 18 24 13 28
-7 96 19 96 37 0 6 15 13 32 14 44 3 88 22 88 38 0 8 5 15 11 17 9 3 7 22 -4
68 -32 127 -40 212 -34 370 4 109 11 176 25 225 35 127 70 231 91 275 12 24
21 48 21 52 0 5 18 46 40 92 43 88 50 126 25 126 -9 0 -22 5 -29 12 -10 9 -8
16 7 31 16 16 23 17 44 8 13 -6 28 -9 33 -6 16 10 71 116 65 126 -4 5 -3 9 2
8 21 -4 33 2 33 16 0 8 4 15 9 15 4 0 19 21 32 46 13 25 38 61 54 78 17 18 37
42 45 53 55 76 214 242 294 307 21 17 55 46 75 64 20 17 44 35 54 38 9 3 17 9
17 14 0 5 8 11 18 14 10 4 48 26 84 49 36 24 80 50 97 57 19 7 31 20 31 31 0
10 10 25 21 33 18 12 27 13 53 2 26 -11 40 -10 91 6 33 11 114 25 180 32 66 7
121 14 121 15 1 0 18 -6 39 -15z m225 -4 c19 -12 7 -22 -30 -27 -28 -3 -29 -1
-18 17 14 22 25 24 48 10z m-15515 -16 c16 -4 20 -14 22 -48 l1 -42 -43 11
c-56 14 -57 15 -44 53 11 32 24 37 64 26z m5822 -30 c7 -20 -8 -48 -29 -52
-17 -3 -43 41 -34 57 11 17 56 13 63 -5z m-6647 -8 c0 -9 -30 -14 -35 -6 -4 6
3 10 14 10 12 0 21 -2 21 -4z m664 -45 c7 -10 -18 -34 -27 -25 -7 8 3 34 13
34 5 0 11 -4 14 -9z m94 -16 c17 -5 20 -10 12 -19 -11 -15 -61 -9 -72 8 -10
15 1 27 20 22 10 -2 27 -7 40 -11z m13530 -3 c2 -7 -2 -10 -12 -6 -9 3 -16 11
-16 16 0 13 23 5 28 -10z m-16633 -2 c3 -5 1 -10 -4 -10 -6 0 -11 5 -11 10 0
6 2 10 4 10 3 0 8 -4 11 -10z m1852 -37 c4 -12 -27 -47 -34 -39 -3 3 -2 17 1
31 7 26 26 30 33 8z m-1754 -19 c22 -29 16 -54 -11 -54 -24 0 -38 16 -47 53
-6 24 -4 27 16 27 14 0 32 -11 42 -26z m7067 -47 c0 -21 -12 -28 -27 -16 -19
16 -16 29 7 29 11 0 20 -6 20 -13z m115 -226 c0 -22 -4 -24 -45 -24 -42 0 -45
2 -48 27 -3 27 -2 27 45 24 43 -3 48 -5 48 -27z m1872 -92 c-16 -10 -47 -2
-47 11 0 14 24 18 44 7 17 -8 17 -10 3 -18z m-11654 -99 c-3 -12 -8 -19 -11
-16 -5 6 5 36 12 36 2 0 2 -9 -1 -20z m11405 -37 c13 -21 13 -23 -7 -23 -12 0
-25 8 -28 18 -4 9 -11 21 -17 25 -6 4 -1 7 13 5 13 -2 30 -13 39 -25z m-8818
-23 c0 -5 -4 -10 -9 -10 -6 0 -13 5 -16 10 -3 6 1 10 9 10 9 0 16 -4 16 -10z
m8590 -140 c0 -5 -4 -10 -10 -10 -5 0 -10 5 -10 10 0 6 5 10 10 10 6 0 10 -4
10 -10z m-5192 -33 c2 -10 -3 -17 -12 -17 -10 0 -16 9 -16 21 0 24 23 21 28
-4z m-6139 -34 c-1 -23 -2 -24 -6 -6 -3 15 -9 20 -20 16 -11 -4 -14 -2 -9 5
14 23 36 13 35 -15z m15685 11 c24 -24 20 -51 -8 -56 -40 -8 -62 32 -34 60 16
16 23 15 42 -4z m781 -22 c-8 -9 -25 20 -18 31 3 5 10 2 15 -7 6 -10 7 -20 3
-24z m2344 19 c8 -5 11 -16 8 -25 -8 -20 -50 -7 -55 18 -4 18 23 22 47 7z
m-12222 -39 c-26 -3 -28 -6 -22 -33 6 -25 4 -29 -14 -29 -18 0 -21 6 -21 38
l0 38 43 -5 c34 -4 37 -6 14 -9z m-4187 -12 c0 -5 -2 -10 -4 -10 -3 0 -8 5
-11 10 -3 6 -1 10 4 10 6 0 11 -4 11 -10z m9879 -14 c19 -23 -4 -28 -24 -6
-15 17 -16 20 -3 20 9 0 21 -6 27 -14z m671 -2 c0 -8 -5 -12 -10 -9 -6 4 -8
11 -5 16 9 14 15 11 15 -7z m-6310 -24 c0 -11 -4 -20 -10 -20 -5 0 -10 9 -10
20 0 11 5 20 10 20 6 0 10 -9 10 -20z m-4780 -16 c0 -8 -4 -14 -10 -14 -5 0
-10 9 -10 21 0 11 5 17 10 14 6 -3 10 -13 10 -21z m-217 -11 c-7 -2 -21 -2
-30 0 -10 3 -4 5 12 5 17 0 24 -2 18 -5z m260 -37 c9 -7 17 -21 17 -31 0 -16
-3 -16 -25 5 -37 35 -31 55 8 26z m4584 -16 c-17 -28 -27 -25 -14 4 7 13 15
22 19 20 4 -3 2 -14 -5 -24z m3670 -52 c-2 -7 3 -18 11 -24 10 -8 13 -17 7
-30 -7 -17 -8 -18 -12 -1 -3 9 -11 17 -19 17 -17 0 -17 5 -4 31 12 21 24 26
17 7z m8776 -40 l48 -43 -12 -54 c-7 -34 -21 -63 -37 -78 -23 -21 -27 -22 -42
-8 -19 17 -40 20 -40 5 0 -25 -28 -6 -44 30 -13 30 -16 52 -10 87 16 114 57
132 137 61z m-12903 22 c0 -5 -7 -10 -16 -10 -8 0 -12 5 -9 10 3 6 10 10 16
10 5 0 9 -4 9 -10z m-3847 -51 c27 -24 19 -73 -11 -77 -33 -5 -52 15 -52 55 0
33 -1 34 -35 27 -24 -4 -35 -3 -35 6 0 18 111 10 133 -11z m3943 10 c4 -8 9
-7 15 2 16 27 21 -1 6 -38 l-15 -38 -10 27 c-6 14 -16 29 -21 33 -6 3 -11 10
-11 16 0 13 27 11 36 -2z m3344 -5 c0 -17 -22 -14 -28 4 -2 7 3 12 12 12 9 0
16 -7 16 -16z m-3455 -94 c3 -5 1 -10 -4 -10 -6 0 -11 5 -11 10 0 6 2 10 4 10
3 0 8 -4 11 -10z m3352 -62 c-3 -8 -6 -5 -6 6 -1 11 2 17 5 13 3 -3 4 -12 1
-19z m9465 -82 c3 -15 0 -27 -8 -30 -18 -7 -27 10 -19 34 9 27 22 25 27 -4z
m-9552 -28 c0 -16 -3 -19 -11 -11 -6 6 -8 16 -5 22 11 17 16 13 16 -11z m1778
10 c19 -19 15 -48 -8 -48 -23 0 -35 22 -26 45 7 18 18 19 34 3z m-954 -7 c3
-5 -1 -14 -9 -21 -13 -10 -15 -9 -15 9 0 21 14 28 24 12z m-739 -10 c3 -5 1
-12 -5 -16 -5 -3 -10 1 -10 9 0 18 6 21 15 7z m-3302 -99 c3 -14 1 -35 -3 -46
-7 -19 -9 -19 -15 -3 -4 9 -16 17 -27 17 -15 0 -18 -5 -13 -20 5 -15 3 -18 -9
-14 -19 7 -20 13 -1 38 8 11 15 38 15 60 l0 39 24 -22 c13 -12 26 -34 29 -49z
m217 52 c0 -8 -4 -12 -10 -9 -5 3 -10 10 -10 16 0 5 5 9 10 9 6 0 10 -7 10
-16z m12565 -17 c21 -30 19 -40 -10 -54 -14 -6 -23 -7 -19 -2 3 5 -1 9 -10 9
-15 0 -32 52 -22 69 9 14 45 1 61 -22z m-9650 -12 c0 -10 -5 -20 -11 -22 -13
-4 -27 24 -18 38 9 15 29 4 29 -16z m-2952 -49 c13 -10 16 -21 11 -40 -5 -22
-12 -26 -32 -24 -37 4 -51 32 -28 57 22 24 25 25 49 7z m8767 -56 c0 -5 -2
-10 -4 -10 -3 0 -8 5 -11 10 -3 6 -1 10 4 10 6 0 11 -4 11 -10z m3824 -73 c6
-9 7 -19 3 -23 -9 -9 -37 15 -37 33 0 18 20 12 34 -10z m-14234 -27 c0 -5 -4
-10 -10 -10 -5 0 -10 5 -10 10 0 6 5 10 10 10 6 0 10 -4 10 -10z m1305 -10
c18 -1 18 -2 -2 -10 -15 -6 -21 -15 -17 -25 4 -10 0 -15 -11 -15 -11 0 -15 5
-12 14 3 8 -1 17 -9 20 -24 9 -16 29 9 22 12 -3 31 -6 42 -6z m115 -10 c0 -5
-4 -10 -10 -10 -5 0 -10 5 -10 10 0 6 5 10 10 10 6 0 10 -4 10 -10z m4759 -57
c1 -13 -3 -23 -9 -23 -5 0 -10 21 -9 48 1 38 2 42 9 22 4 -14 8 -35 9 -47z
m-4999 47 c0 -5 -4 -10 -10 -10 -5 0 -10 5 -10 10 0 6 5 10 10 10 6 0 10 -4
10 -10z m13040 -61 c0 -10 -4 -19 -9 -19 -12 0 -23 29 -15 41 8 14 24 0 24
-22z m-8620 -9 c0 -5 -4 -10 -10 -10 -5 0 -10 5 -10 10 0 6 5 10 10 10 6 0 10
-4 10 -10z m-1505 -9 c7 -12 -12 -24 -25 -16 -11 7 -4 25 10 25 5 0 11 -4 15
-9z m1203 -9 c2 -7 -6 -12 -17 -12 -21 0 -27 11 -14 24 9 9 26 2 31 -12z
m5112 -8 c0 -17 -12 -18 -28 -2 -18 18 -15 27 8 21 11 -3 20 -12 20 -19z
m-3320 9 c0 -5 -5 -15 -10 -23 -8 -12 -10 -11 -10 8 0 12 5 22 10 22 6 0 10
-3 10 -7z m7028 -18 c-2 -15 -6 -21 -11 -16 -6 6 -7 17 -4 25 9 24 17 19 15
-9z m-8873 -5 c3 -5 1 -10 -4 -10 -6 0 -11 5 -11 10 0 6 2 10 4 10 3 0 8 -4
11 -10z m-1208 -32 c-3 -8 -6 -5 -6 6 -1 11 2 17 5 13 3 -3 4 -12 1 -19z
m9130 -21 c-6 -20 -27 -19 -27 2 0 14 5 19 15 14 9 -3 14 -10 12 -16z m-11687
-33 c0 -23 -1 -24 -16 -10 -8 9 -12 20 -9 26 12 19 25 10 25 -16z m2942 -42
c3 -10 0 -19 -6 -19 -7 0 -13 11 -14 24 -2 27 13 23 20 -5z m-3262 8 c0 -5 -7
-10 -15 -10 -8 0 -15 5 -15 10 0 6 7 10 15 10 8 0 15 -4 15 -10z m54 -46 c3
-9 6 -25 6 -37 0 -27 -15 -11 -24 26 -7 29 8 38 18 11z m6460 -10 c20 -19 21
-44 1 -44 -17 0 -39 36 -30 50 8 13 11 13 29 -6z m-6554 -4 c0 -5 -4 -10 -9
-10 -6 0 -13 5 -16 10 -3 6 1 10 9 10 9 0 16 -4 16 -10z m4220 -4 c0 -8 -4
-18 -10 -21 -5 -3 -10 3 -10 14 0 12 5 21 10 21 6 0 10 -6 10 -14z m40 -17 c0
-27 -2 -30 -15 -19 -8 7 -15 21 -15 31 0 11 7 19 15 19 10 0 15 -10 15 -31z
m-4206 -48 c-3 -3 -15 5 -25 18 -15 18 -17 26 -8 32 13 8 44 -39 33 -50z
m12982 22 c9 -36 -2 -39 -20 -4 -20 37 -20 42 -1 35 8 -4 18 -17 21 -31z
m-8752 -35 c15 -15 9 -48 -9 -48 -13 0 -25 21 -25 46 0 17 16 18 34 2z m-5162
-22 c3 -15 0 -27 -8 -30 -15 -6 -26 18 -18 39 9 23 21 18 26 -9z m3778 -11 c0
-14 -4 -25 -10 -25 -5 0 -10 11 -10 25 0 14 5 25 10 25 6 0 10 -11 10 -25z
m-6305 -14 c-3 -6 -11 -11 -17 -11 -6 0 -6 6 2 15 14 17 26 13 15 -4z m15602
-118 c-3 -3 -11 -2 -17 2 -9 6 -9 10 1 16 14 8 27 -7 16 -18z m-8957 -3 c0
-11 -2 -20 -5 -20 -2 0 -9 9 -15 20 -9 16 -8 20 5 20 8 0 15 -9 15 -20z m876
-27 c-11 -11 -19 6 -11 24 8 17 8 17 12 0 3 -10 2 -21 -1 -24z m-7681 17 c3
-5 1 -10 -4 -10 -6 0 -11 5 -11 10 0 6 2 10 4 10 3 0 8 -4 11 -10z m15175 -10
c0 -5 -4 -10 -10 -10 -5 0 -10 5 -10 10 0 6 5 10 10 10 6 0 10 -4 10 -10z
m-7710 -32 c0 -5 -4 -8 -10 -8 -5 0 -10 10 -10 23 0 18 2 19 10 7 5 -8 10 -18
10 -22z m-7440 5 c0 -5 -5 -15 -10 -23 -8 -12 -10 -11 -10 8 0 12 5 22 10 22
6 0 10 -3 10 -7z m8635 -13 c3 -5 1 -10 -4 -10 -6 0 -11 5 -11 10 0 6 2 10 4
10 3 0 8 -4 11 -10z m1475 -14 c16 -20 9 -60 -12 -64 -15 -3 -18 4 -18 37 0
43 9 51 30 27z m-3334 -73 c-10 -10 -19 5 -10 18 6 11 8 11 12 0 2 -7 1 -15
-2 -18z m-5126 -53 c9 -17 8 -20 -10 -20 -13 0 -20 7 -20 20 0 11 4 20 10 20
5 0 14 -9 20 -20z m-1170 -90 c0 -5 -4 -10 -10 -10 -5 0 -10 5 -10 10 0 6 5
10 10 10 6 0 10 -4 10 -10z m6410 -30 c6 -11 8 -20 6 -20 -3 0 -10 9 -16 20
-6 11 -8 20 -6 20 3 0 10 -9 16 -20z m-6313 -26 c-9 -9 -28 6 -21 18 4 6 10 6
17 -1 6 -6 8 -13 4 -17z m-684 -24 c4 -17 2 -18 -14 -9 -20 10 -24 21 -13 32
10 10 21 0 27 -23z m698 -10 c6 0 7 4 4 10 -3 6 1 7 10 4 12 -5 13 -9 4 -20
-9 -11 -15 -11 -25 -3 -8 6 -14 17 -13 23 0 7 2 6 6 -1 2 -7 9 -13 14 -13z
m8862 -3 c-2 -4 3 -10 11 -13 9 -3 16 -11 16 -17 0 -7 -4 -7 -12 1 -7 7 -19
12 -27 12 -12 0 -11 -3 2 -18 18 -19 8 -47 -14 -40 -8 3 -14 20 -14 44 0 33 3
39 22 39 11 0 19 -3 16 -8z m7991 7 c21 -8 21 -33 0 -41 -18 -7 -35 14 -27 34
6 15 6 15 27 7z m-13007 -45 c19 1 33 -2 33 -8 0 -6 0 -14 0 -18 0 -11 -24
-10 -32 1 -7 11 -58 18 -58 7 0 -3 -12 -6 -27 -5 -16 0 -28 5 -28 10 0 10 56
23 70 15 5 -3 24 -4 42 -2z m-697 -9 c0 -5 -4 -10 -10 -10 -5 0 -10 5 -10 10
0 6 5 10 10 10 6 0 10 -4 10 -10z m1347 -6 c-3 -3 -12 -4 -19 -1 -8 3 -5 6 6
6 11 1 17 -2 13 -5z m4297 -10 c9 -8 13 -20 10 -26 -4 -7 -14 -1 -26 13 -11
13 -17 18 -13 12 3 -7 1 -13 -4 -13 -12 0 -14 13 -4 23 10 11 20 8 37 -9z
m-8074 -4 c0 -5 -7 -10 -15 -10 -8 0 -15 5 -15 10 0 6 7 10 15 10 8 0 15 -4
15 -10z m7130 -20 c0 -4 -6 -12 -13 -18 -10 -8 -13 -5 -15 13 -1 18 2 23 13
19 8 -4 15 -10 15 -14z m-3950 -14 c0 -28 -14 -56 -26 -56 -15 0 -16 4 -16 45
0 34 0 34 22 28 11 -3 20 -10 20 -17z m2695 -7 c-6 -19 -4 -21 19 -17 15 3 29
2 31 -2 7 -11 -36 -20 -62 -14 -22 6 -22 7 -5 30 21 29 25 30 17 3z m-4275 -9
c0 -5 -4 -10 -10 -10 -5 0 -10 5 -10 10 0 6 5 10 10 10 6 0 10 -4 10 -10z
m1410 -11 c0 -5 -4 -9 -10 -9 -5 0 -10 7 -10 16 0 8 5 12 10 9 6 -3 10 -10 10
-16z m-690 1 c0 -5 -4 -10 -10 -10 -5 0 -10 5 -10 10 0 6 5 10 10 10 6 0 10
-4 10 -10z m-2907 -17 c-3 -7 -8 -13 -12 -13 -4 0 -8 6 -8 13 0 8 6 14 13 14
7 0 10 -6 7 -14z m2872 7 c3 -5 1 -10 -4 -10 -6 0 -11 5 -11 10 0 6 2 10 4 10
3 0 8 -4 11 -10z m3858 -7 c-7 -2 -21 -2 -30 0 -10 3 -4 5 12 5 17 0 24 -2 18
-5z m2027 -3 c0 -11 -48 -25 -57 -16 -4 3 1 6 10 6 10 0 17 5 17 10 0 6 7 10
15 10 8 0 15 -4 15 -10z m-6337 -12 c-2 -5 -2 -8 1 -8 2 0 11 -3 20 -6 10 -4
16 -1 16 10 0 10 6 13 15 9 13 -5 13 -8 -4 -20 -18 -12 -24 -12 -49 1 -16 8
-40 13 -53 10 -21 -4 -21 -3 -4 4 24 11 65 10 58 0z m322 4 c16 -12 35 -50 35
-72 0 -21 -15 -27 -25 -10 -15 24 -30 7 -32 -35 -1 -25 2 -45 7 -45 6 0 10 -7
10 -15 0 -8 -4 -15 -10 -15 -5 0 -10 7 -10 15 0 8 -5 15 -10 15 -6 0 -8 15 -4
40 l7 40 -41 0 c-23 0 -44 5 -47 10 -3 6 -23 10 -43 10 -20 0 -44 5 -52 10
-10 6 -11 10 -2 10 6 0 12 9 12 20 0 11 7 20 15 20 8 0 15 -7 15 -15 0 -8 8
-15 18 -15 14 0 15 -2 2 -10 -12 -8 -11 -10 7 -10 12 0 25 -5 28 -10 5 -8 11
-7 21 1 10 8 11 16 3 30 -5 11 -7 24 -4 29 7 12 85 13 100 2z m1662 2 c-3 -3
-12 -4 -19 -1 -8 3 -5 6 6 6 11 1 17 -2 13 -5z m2130 0 c-3 -3 -12 -4 -19 -1
-8 3 -5 6 6 6 11 1 17 -2 13 -5z m56 -1 c-7 -2 -19 -2 -25 0 -7 3 -2 5 12 5
14 0 19 -2 13 -5z m-3623 -13 c0 -5 -7 -10 -15 -10 -8 0 -15 5 -15 10 0 6 7
10 15 10 8 0 15 -4 15 -10z m3170 6 c0 -2 -7 -6 -15 -10 -8 -3 -15 -1 -15 4 0
6 7 10 15 10 8 0 15 -2 15 -4z m356 -17 c0 -27 -30 -40 -52 -24 -18 13 -18 14
-1 15 9 0 17 6 17 14 0 8 8 14 18 13 10 0 18 -9 18 -18z m1044 11 c0 -5 -9
-10 -20 -10 -11 0 -20 5 -20 10 0 6 9 10 20 10 11 0 20 -4 20 -10z m-4696 -6
c9 -3 16 -10 16 -15 0 -10 -31 -12 -55 -3 -13 5 -14 8 -3 15 16 10 22 11 42 3z
m3723 -18 c-2 -6 -11 -12 -20 -14 -11 -2 -14 2 -10 17 3 12 11 17 19 14 8 -3
13 -11 11 -17z m-1978 -12 c-6 -7 -15 -11 -21 -8 -5 3 -4 12 3 20 6 7 15 11
21 8 5 -3 4 -12 -3 -20z m1811 7 c0 -14 -37 -24 -52 -15 -9 6 -5 10 12 15 36
10 40 10 40 0z m-3366 -26 c3 -8 1 -15 -4 -15 -6 0 -10 4 -10 9 0 6 -12 3 -27
-5 -36 -18 -53 -18 -53 0 0 10 13 16 38 19 20 2 40 4 43 5 4 1 9 -5 13 -13z
m3767 -4 c-12 -10 -30 -17 -40 -14 -10 3 -22 0 -25 -6 -10 -15 -35 -14 -52 3
-18 18 -18 23 1 23 8 0 15 -6 15 -14 0 -11 4 -11 28 0 15 7 35 12 45 10 9 -3
17 0 17 6 0 6 7 11 17 11 13 0 12 -3 -6 -19z m-2326 -20 c-6 -5 -25 10 -25 20
0 5 6 4 14 -3 8 -7 12 -15 11 -17z m2085 25 c0 -2 -7 -7 -16 -10 -8 -3 -12 -2
-9 4 6 10 25 14 25 6z m-3728 -15 c-9 -5 -12 -20 -8 -47 7 -44 2 -37 -13 19
-9 34 -8 37 12 37 16 0 18 -3 9 -9z m3811 2 c-15 -3 -23 -12 -24 -26 0 -12 -3
-16 -6 -9 -9 22 5 42 29 41 l23 -2 -22 -4z m2214 1 c-3 -3 -12 -4 -19 -1 -8 3
-5 6 6 6 11 1 17 -2 13 -5z m-5977 -14 c0 -5 -4 -10 -10 -10 -5 0 -10 5 -10
10 0 6 5 10 10 10 6 0 10 -4 10 -10z m44 -33 c-7 -19 -20 -22 -29 -7 -9 15 16
43 27 32 5 -5 6 -16 2 -25z m-264 3 c0 -11 -4 -20 -10 -20 -5 0 -10 9 -10 20
0 11 5 20 10 20 6 0 10 -9 10 -20z m13894 -13 c7 -18 6 -30 -4 -42 -13 -16
-15 -15 -27 1 -7 10 -13 27 -13 39 0 44 29 45 44 2z m-13440 -30 c6 -4 -1 -5
-17 -1 -16 4 -33 1 -42 -6 -12 -10 -15 -9 -15 9 0 11 -1 24 -2 28 -2 4 11 10
27 13 25 4 31 2 34 -15 1 -11 8 -24 15 -28z m-344 12 c0 -5 -4 -9 -10 -9 -5 0
-10 7 -10 16 0 8 5 12 10 9 6 -3 10 -10 10 -16z m105 1 c3 -5 1 -10 -4 -10 -6
0 -11 5 -11 10 0 6 2 10 4 10 3 0 8 -4 11 -10z m92 -6 c-3 -3 -12 -4 -19 -1
-8 3 -5 6 6 6 11 1 17 -2 13 -5z m-180 -26 c-3 -8 -6 -5 -6 6 -1 11 2 17 5 13
3 -3 4 -12 1 -19z m223 2 c-12 -22 -30 -18 -30 6 0 8 9 14 20 14 18 0 19 -3
10 -20z m-2839 0 c27 -15 24 -30 -6 -30 -18 0 -25 5 -25 20 0 23 4 24 31 10z
m2779 -55 c0 -17 -5 -25 -17 -24 -11 0 -13 3 -5 6 6 2 12 13 12 24 0 10 2 19
5 19 3 0 5 -11 5 -25z m770 15 c0 -5 -4 -10 -10 -10 -5 0 -10 5 -10 10 0 6 5
10 10 10 6 0 10 -4 10 -10z m-536 -35 c-4 -8 -10 -12 -15 -9 -14 8 -10 24 6
24 9 0 12 -6 9 -15z m546 11 c0 -3 -4 -8 -10 -11 -5 -3 -10 -1 -10 4 0 6 5 11
10 11 6 0 10 -2 10 -4z"/>
<path d="M11040 49800 c0 -5 7 -7 15 -4 8 4 15 8 15 10 0 2 -7 4 -15 4 -8 0
-15 -4 -15 -10z"/>
<path d="M8300 49111 c0 -5 5 -13 10 -16 6 -3 10 -2 10 4 0 5 -4 13 -10 16 -5
3 -10 2 -10 -4z"/>
<path d="M9927 48848 c2 -5 -8 -8 -23 -8 -42 0 -194 -34 -194 -43 0 -5 9 -6
19 -2 11 3 35 -1 55 -9 30 -12 36 -13 47 0 28 34 81 5 60 -34 -6 -11 -5 -23 4
-35 15 -21 25 -22 25 -2 0 24 35 18 69 -12 35 -31 38 -41 16 -57 -13 -9 -11
-11 9 -12 15 -1 23 3 20 10 -8 22 35 56 71 56 36 0 40 5 35 58 -1 12 4 22 11
22 9 0 9 3 -1 14 -6 8 -18 12 -27 9 -8 -3 -19 0 -24 8 -6 10 -2 16 14 21 20 5
20 6 -5 7 -15 1 -30 6 -33 11 -4 6 -37 9 -80 8 -40 -2 -71 -6 -68 -10z"/>
<path d="M10631 48824 c0 -11 3 -14 6 -6 3 7 2 16 -1 19 -3 4 -6 -2 -5 -13z"/>
<path d="M9672 48792 c-15 -10 -15 -92 0 -141 8 -26 7 -35 -3 -42 -10 -6 -4
-9 18 -9 17 0 44 -5 59 -10 31 -12 29 -13 38 24 6 25 5 28 -7 17 -12 -9 -16
-8 -21 5 -9 23 -7 31 4 14 8 -13 10 -12 10 3 0 9 -5 17 -11 17 -5 0 -7 5 -4
10 4 6 -1 22 -9 35 -12 17 -13 25 -4 25 6 0 -1 14 -17 30 -31 33 -34 34 -53
22z"/>
<path d="M9513 48738 c-1 -11 3 -15 13 -11 8 3 14 9 14 13 0 5 12 11 28 13 16
3 10 4 -14 3 -30 -1 -40 -5 -41 -18z"/>
<path d="M9820 48741 c0 -10 24 -21 43 -21 7 0 3 7 -7 15 -22 17 -36 19 -36 6z"/>
<path d="M9578 48733 c7 -3 16 -2 19 1 4 3 -2 6 -13 5 -11 0 -14 -3 -6 -6z"/>
<path d="M9820 48710 c0 -5 5 -10 10 -10 6 0 10 5 10 10 0 6 -4 10 -10 10 -5
0 -10 -4 -10 -10z"/>
<path d="M9441 48694 c0 -11 3 -14 6 -6 3 7 2 16 -1 19 -3 4 -6 -2 -5 -13z"/>
<path d="M10207 48694 c-9 -10 12 -34 30 -34 19 0 12 34 -8 38 -8 1 -18 0 -22
-4z"/>
<path d="M9824 48659 c-8 -14 18 -31 30 -19 9 9 0 30 -14 30 -5 0 -12 -5 -16
-11z"/>
<path d="M9210 48647 c-25 -6 -47 -14 -50 -18 -3 -3 -26 -17 -52 -29 -38 -17
-47 -26 -44 -44 3 -21 46 -37 46 -17 0 10 62 41 81 41 5 0 6 -6 3 -14 -3 -8
-14 -13 -25 -11 -10 2 -21 -1 -24 -6 -4 -5 -11 -7 -16 -4 -5 4 -9 -3 -9 -13 0
-12 9 -22 22 -25 12 -4 19 -9 15 -13 -4 -4 3 -14 14 -22 16 -11 23 -12 29 -2
4 6 11 12 16 13 5 1 8 14 6 30 -2 19 1 27 12 27 8 0 20 9 26 20 6 11 16 20 23
20 19 0 47 38 41 54 -5 13 -38 27 -59 25 -5 -1 -30 -6 -55 -12z"/>
<path d="M9480 48590 c0 -16 5 -30 10 -30 6 0 10 -8 10 -17 0 -10 14 -26 31
-35 17 -10 27 -22 24 -28 -11 -17 11 -11 28 8 10 10 17 32 17 49 0 25 -5 32
-27 38 -15 3 -33 15 -41 26 -7 10 -22 19 -33 19 -14 0 -19 -7 -19 -30z m60
-56 c0 -8 -4 -12 -10 -9 -5 3 -10 13 -10 21 0 8 5 12 10 9 6 -3 10 -13 10 -21z"/>
<path d="M9800 48600 c0 -5 5 -10 10 -10 6 0 10 5 10 10 0 6 -4 10 -10 10 -5
0 -10 -4 -10 -10z"/>
<path d="M9015 48519 c-4 -6 -5 -12 -2 -15 2 -3 7 2 10 11 7 17 1 20 -8 4z"/>
<path d="M8978 48503 c7 -3 16 -2 19 1 4 3 -2 6 -13 5 -11 0 -14 -3 -6 -6z"/>
<path d="M8095 48470 c-9 -15 4 -30 27 -30 14 0 18 5 14 16 -3 9 -6 18 -6 20
0 8 -29 4 -35 -6z"/>
<path d="M11491 48357 c-6 -8 -14 -28 -17 -45 -5 -25 -3 -32 10 -32 10 0 16 9
16 25 0 14 6 28 14 31 8 3 12 12 9 20 -7 18 -17 18 -32 1z"/>
<path d="M16962 48308 c-7 -18 -19 -28 -32 -28 -12 0 -30 -5 -40 -10 -14 -7
-31 -6 -61 4 -29 10 -48 12 -60 5 -26 -13 -48 -11 -67 7 -10 11 -17 13 -20 5
-2 -6 -12 -11 -22 -11 -10 0 -20 -5 -22 -12 -3 -7 -33 -11 -84 -12 -69 -1 -79
-3 -76 -18 2 -14 -7 -19 -38 -24 -24 -4 -40 -12 -40 -20 0 -8 -10 -14 -22 -14
-17 0 -19 -3 -9 -9 11 -7 8 -13 -13 -26 -25 -17 -27 -17 -39 -1 -10 14 -25 17
-84 13 -67 -3 -74 -6 -109 -40 -21 -20 -43 -37 -48 -37 -5 0 -19 -12 -31 -26
-15 -17 -36 -27 -66 -31 -24 -3 -47 -11 -51 -17 -5 -7 -8 -5 -8 6 0 12 -7 16
-27 14 -32 -4 -44 -26 -14 -26 24 0 29 -28 6 -36 -10 -4 -15 -19 -15 -43 0
-20 -7 -46 -15 -58 -11 -15 -12 -22 -3 -25 8 -3 6 -11 -5 -29 -18 -27 -17 -91
1 -97 7 -2 12 -23 12 -47 0 -32 7 -51 26 -74 27 -33 32 -53 34 -146 1 -52 2
-58 14 -42 7 9 20 17 29 17 9 0 19 5 22 10 10 16 41 11 59 -9 10 -11 15 -24
12 -30 -4 -5 -2 -12 4 -16 16 -10 2 -25 -23 -25 -20 -1 -21 -2 -5 -14 10 -7
15 -16 11 -19 -9 -10 -43 -8 -43 1 0 5 -17 9 -38 10 -37 2 -38 1 -40 -36 -2
-31 3 -43 28 -67 18 -17 30 -39 30 -55 0 -24 3 -26 50 -28 43 -2 50 1 50 17 0
11 -4 21 -9 23 -5 2 -14 27 -19 56 -8 47 -8 52 9 52 10 0 20 -4 24 -9 3 -6 17
-4 33 5 38 19 42 18 42 -15 0 -35 15 -49 25 -24 6 16 8 16 23 -4 13 -17 21
-20 32 -13 8 5 10 10 4 10 -6 0 -16 11 -22 25 -14 31 -15 38 -3 30 5 -3 12 4
16 15 3 11 10 20 15 20 4 0 11 7 14 16 5 13 2 15 -14 11 -29 -7 -25 6 10 31
32 24 76 30 64 10 -3 -7 23 19 60 57 45 48 64 76 60 87 -5 18 24 78 38 78 4 0
10 -4 13 -10 3 -5 1 -10 -4 -10 -6 0 -11 -6 -11 -14 0 -19 38 -9 66 18 17 15
21 28 17 57 -5 34 -3 37 14 33 11 -3 25 2 32 10 8 9 10 16 6 16 -5 0 -1 8 8
18 15 17 17 21 17 42 0 6 5 10 11 10 6 0 8 -7 5 -16 -5 -14 -4 -15 8 -5 8 7
18 25 21 41 3 16 13 31 21 34 8 3 14 14 14 25 0 11 5 23 12 27 7 5 8 3 3 -7
-5 -8 6 1 24 19 18 17 37 30 42 26 9 -5 13 9 10 33 -2 14 40 59 51 56 4 -2 5
4 2 12 -4 8 -11 12 -18 8 -6 -4 -5 1 2 10 8 9 17 16 20 15 22 -2 42 3 42 12 0
7 -6 7 -19 0 -15 -7 -24 -6 -36 6 -15 15 -15 18 1 35 9 11 23 19 31 19 7 0 13
5 13 10 0 6 -4 10 -10 10 -5 0 -10 7 -10 16 0 8 5 12 10 9 6 -3 10 -3 10 2 0
13 54 12 62 0 5 -8 10 -8 17 -2 12 13 21 96 9 89 -4 -3 -6 -9 -3 -14 3 -5 1
-11 -4 -14 -14 -9 -23 25 -10 40 6 7 9 21 6 31 -3 15 -6 13 -15 -9z m-228 -80
c6 -4 20 -5 31 -2 18 6 17 4 -4 -15 -41 -36 -67 -24 -55 26 5 18 9 22 12 13 3
-8 10 -18 16 -22z m143 -20 c-3 -7 -5 -2 -5 12 0 14 2 19 5 13 2 -7 2 -19 0
-25z m-837 -192 c0 -3 -4 -8 -10 -11 -5 -3 -10 -1 -10 4 0 6 5 11 10 11 6 0
10 -2 10 -4z m-60 -26 c0 -5 -2 -10 -4 -10 -3 0 -8 5 -11 10 -3 6 -1 10 4 10
6 0 11 -4 11 -10z m505 -140 c3 -5 -1 -10 -9 -10 -9 0 -16 5 -16 10 0 6 4 10
9 10 6 0 13 -4 16 -10z"/>
<path d="M8527 48213 c-18 -4 -17 -6 3 -20 23 -16 48 -5 36 16 -7 11 -9 12
-39 4z"/>
<path d="M16333 48213 c9 -2 23 -2 30 0 6 3 -1 5 -18 5 -16 0 -22 -2 -12 -5z"/>
<path d="M17742 48180 c0 -14 2 -19 5 -12 2 6 2 18 0 25 -3 6 -5 1 -5 -13z"/>
<path d="M8600 48167 c14 -7 34 -11 44 -8 20 4 20 4 0 12 -10 4 -30 8 -44 8
l-25 1 25 -13z"/>
<path d="M16118 48163 c7 -3 16 -2 19 1 4 3 -2 6 -13 5 -11 0 -14 -3 -6 -6z"/>
<path d="M13271 48070 c-18 -4 -36 -12 -40 -17 -3 -5 -22 -16 -41 -26 -19 -9
-27 -17 -18 -17 9 0 19 4 23 9 3 6 34 8 68 5 76 -5 111 11 82 39 -18 18 -23
19 -74 7z"/>
<path d="M13160 48040 c-13 -8 -13 -10 2 -10 9 0 20 5 23 10 8 13 -5 13 -25 0z"/>
<path d="M13467 48009 c7 -7 15 -10 18 -7 3 3 -2 9 -12 12 -14 6 -15 5 -6 -5z"/>
<path d="M9773 48003 c9 -2 23 -2 30 0 6 3 -1 5 -18 5 -16 0 -22 -2 -12 -5z"/>
<path d="M11918 48003 c7 -3 16 -2 19 1 4 3 -2 6 -13 5 -11 0 -14 -3 -6 -6z"/>
<path d="M13352 47991 c-11 -6 -9 -9 6 -13 15 -4 19 -2 15 8 -6 16 -4 16 -21
5z"/>
<path d="M17320 47952 c0 -12 19 -26 26 -19 2 2 -2 10 -11 17 -9 8 -15 8 -15
2z"/>
<path d="M13196 47933 c2 -8 -7 -13 -22 -13 -20 0 -25 -4 -20 -16 3 -9 6 -27
6 -40 0 -15 6 -24 15 -24 10 0 15 10 15 28 0 15 4 22 8 16 10 -15 47 -34 66
-34 9 0 16 8 16 17 0 19 -46 63 -66 63 -7 0 -14 3 -17 8 -2 4 -2 1 -1 -5z"/>
<path d="M13248 47933 c7 -3 16 -2 19 1 4 3 -2 6 -13 5 -11 0 -14 -3 -6 -6z"/>
<path d="M13360 47912 c0 -6 -16 -13 -35 -16 -43 -8 -45 -22 -4 -31 23 -5 34
-3 44 12 17 22 18 30 5 38 -5 3 -10 2 -10 -3z"/>
<path d="M13248 47833 c7 -3 16 -2 19 1 4 3 -2 6 -13 5 -11 0 -14 -3 -6 -6z"/>
<path d="M13911 47774 c0 -11 3 -14 6 -6 3 7 2 16 -1 19 -3 4 -6 -2 -5 -13z"/>
<path d="M17160 47780 c0 -5 5 -10 10 -10 6 0 10 5 10 10 0 6 -4 10 -10 10 -5
0 -10 -4 -10 -10z"/>
<path d="M15720 47751 c0 -17 15 -19 28 -5 11 12 9 14 -8 14 -11 0 -20 -4 -20
-9z"/>
<path d="M15630 47730 c0 -5 6 -7 14 -4 8 3 17 1 21 -5 10 -17 25 -13 19 4 -7
16 -54 21 -54 5z"/>
<path d="M13916 47701 c-4 -5 -2 -12 3 -15 5 -4 12 -2 15 3 4 5 2 12 -3 15 -5
4 -12 2 -15 -3z"/>
<path d="M15716 47695 c-8 -8 -19 -15 -25 -15 -6 0 -11 -9 -11 -21 0 -11 4
-17 10 -14 5 3 21 -5 34 -19 13 -14 28 -26 33 -26 12 0 5 49 -9 67 -5 6 -5 12
1 15 5 1 3 9 -4 15 -11 10 -17 10 -29 -2z"/>
<path d="M15645 47687 c-29 -17 -35 -29 -28 -55 3 -15 1 -27 -8 -33 -7 -4 -10
-11 -6 -15 9 -9 37 15 37 32 0 18 21 55 40 71 13 11 13 12 0 12 -8 0 -24 -6
-35 -12z"/>
<path d="M17090 47691 c0 -6 -8 -8 -17 -5 -12 4 -14 3 -6 -3 9 -7 5 -18 -18
-43 -25 -26 -33 -30 -40 -19 -6 10 -9 11 -9 1 0 -23 28 -24 51 -3 13 12 27 21
31 21 5 0 8 8 6 18 -2 9 3 16 10 15 14 -3 16 13 2 22 -5 3 -10 2 -10 -4z"/>
<path d="M10888 47673 c6 -2 18 -2 25 0 6 3 1 5 -13 5 -14 0 -19 -2 -12 -5z"/>
<path d="M15580 47650 c0 -5 5 -10 10 -10 6 0 10 5 10 10 0 6 -4 10 -10 10 -5
0 -10 -4 -10 -10z"/>
<path d="M16995 47580 c-3 -5 -1 -10 4 -10 6 0 11 5 11 10 0 6 -2 10 -4 10 -3
0 -8 -4 -11 -10z"/>
<path d="M15613 47551 c-23 -16 -44 -27 -47 -24 -8 8 -66 -17 -66 -29 0 -5 -9
-21 -20 -35 -23 -30 -26 -63 -6 -63 15 0 46 52 46 76 0 9 5 10 24 1 36 -17 41
-61 12 -112 -13 -24 -26 -59 -30 -79 -9 -46 -33 -57 -58 -26 -10 12 -22 19
-26 15 -4 -4 -1 -10 6 -12 17 -6 15 -33 -3 -33 -20 0 -35 32 -28 58 8 32 -25
29 -37 -3 -5 -14 -17 -25 -27 -26 -11 0 -13 -3 -5 -6 6 -2 12 -13 12 -24 0
-15 -7 -19 -31 -19 -16 0 -28 -4 -25 -9 3 -5 -1 -11 -9 -15 -18 -7 -20 -32 -2
-39 9 -4 9 -8 -2 -15 -10 -7 -12 -22 -8 -53 3 -27 2 -38 -3 -29 -7 12 -12 12
-22 2 -6 -6 -22 -12 -35 -12 -17 0 -24 -7 -29 -27 -10 -48 -13 -53 -28 -53
-18 0 -60 -38 -69 -62 -4 -11 -17 -18 -32 -18 -30 0 -65 -16 -65 -30 0 -5 10
-12 21 -15 20 -7 21 -13 17 -64 -3 -31 -3 -48 -1 -38 6 22 9 21 39 -2 l24 -19
-27 1 c-16 1 -46 0 -67 -1 -37 -2 -38 -3 -23 -20 23 -26 22 -69 -3 -84 -12 -8
-20 -24 -21 -43 0 -28 -1 -28 -9 -7 -5 12 -17 22 -26 22 -9 0 -22 7 -28 16
-11 14 -14 12 -24 -11 -11 -24 -11 -26 8 -20 14 4 20 2 20 -9 0 -20 -17 -29
-24 -14 -3 7 -5 -5 -3 -27 2 -33 -1 -40 -15 -37 -21 3 -22 -4 -6 -80 10 -50
10 -61 -2 -69 -12 -7 -11 -10 8 -15 12 -4 22 -13 22 -22 0 -8 7 -20 16 -26 9
-7 12 -18 8 -29 -7 -18 -24 -23 -24 -7 0 6 -4 10 -10 10 -5 0 -10 -9 -10 -19
0 -10 -7 -22 -16 -25 -22 -8 -8 -25 16 -19 16 4 20 0 20 -18 0 -18 3 -20 12
-11 7 7 25 12 40 12 23 0 28 -4 28 -26 0 -14 4 -23 10 -19 6 4 6 15 0 31 -15
38 -12 49 8 33 31 -25 62 -40 62 -29 0 5 9 10 21 10 11 0 17 -4 14 -10 -9 -15
6 -12 24 4 10 9 23 11 36 6 17 -7 17 -9 3 -9 -10 -1 -18 -5 -18 -10 0 -12 51
0 56 14 3 7 -5 29 -16 49 -25 42 -15 47 23 12 15 -14 37 -26 49 -28 20 -3 23
1 20 25 -1 15 2 27 8 27 13 0 13 53 -1 67 -7 7 -5 15 6 27 17 17 38 15 82 -6
29 -14 57 -3 48 20 -15 37 -11 47 25 50 19 2 38 9 42 15 4 7 15 12 25 12 13 0
18 8 18 25 0 17 -5 25 -17 24 -32 -3 -7 24 30 31 27 5 39 3 48 -9 17 -24 34
-19 34 9 0 16 6 25 15 25 12 0 14 4 7 16 -16 29 -2 69 29 83 16 7 29 19 29 27
0 9 3 13 8 10 13 -8 45 22 39 38 -3 8 2 16 14 19 11 3 19 14 19 27 0 19 -4 22
-27 17 -15 -3 -38 0 -52 6 -14 6 -27 11 -28 12 -3 0 26 105 32 115 7 12 45 13
62 2 6 -4 14 -36 16 -72 3 -36 6 -68 6 -72 2 -21 21 -5 21 17 0 27 19 36 21
10 1 -8 3 -19 4 -25 1 -5 4 -16 5 -22 2 -7 6 21 10 62 4 41 4 82 -1 91 -12 24
1 31 20 12 15 -16 16 -15 19 11 2 15 -2 48 -8 74 -10 41 -14 112 -12 202 1 14
0 70 -1 125 l-2 100 -32 3 c-25 2 -33 -1 -33 -13 0 -8 -7 -18 -14 -21 -22 -8
-65 27 -66 53 0 12 -4 25 -10 28 -18 11 -10 24 26 41 26 13 32 20 23 28 -8 8
-13 8 -16 -1 -7 -21 -17 -15 -31 17 -17 37 -29 37 -79 1z m174 -223 c-3 -8 -6
-5 -6 6 -1 11 2 17 5 13 3 -3 4 -12 1 -19z m-467 -227 c0 -12 -20 -25 -27 -18
-7 7 6 27 18 27 5 0 9 -4 9 -9z m-240 -251 c0 -5 -5 -10 -11 -10 -5 0 -7 5 -4
10 3 6 8 10 11 10 2 0 4 -4 4 -10z m440 -40 c0 -5 -7 -10 -16 -10 -8 0 -12 5
-9 10 3 6 10 10 16 10 5 0 9 -4 9 -10z m75 -82 c6 -4 2 -8 -7 -8 -10 0 -18 7
-18 17 0 9 3 12 8 7 4 -5 12 -12 17 -16z m-665 -538 c0 -5 -2 -10 -4 -10 -3 0
-8 5 -11 10 -3 6 -1 10 4 10 6 0 11 -4 11 -10z"/>
<path d="M16957 47523 c-20 -14 -37 -32 -37 -39 0 -6 -7 -14 -15 -18 -22 -8
-18 -29 4 -23 14 3 21 -2 25 -20 4 -13 11 -21 17 -17 6 3 9 14 6 23 -5 21 13
38 35 33 24 -5 42 42 28 69 -14 25 -18 24 -63 -8z"/>
<path d="M15425 47450 c-3 -5 -1 -10 4 -10 6 0 11 5 11 10 0 6 -2 10 -4 10 -3
0 -8 -4 -11 -10z"/>
<path d="M17585 47449 c-4 -6 -5 -13 -2 -16 7 -7 27 6 27 18 0 12 -17 12 -25
-2z"/>
<path d="M16838 47389 c-10 -10 -13 -21 -8 -24 5 -3 14 4 20 16 15 27 10 30
-12 8z"/>
<path d="M15436 47364 c-11 -30 -6 -37 14 -19 11 10 17 22 14 26 -8 14 -21 11
-28 -7z"/>
<path d="M15995 47370 c-3 -5 -1 -10 4 -10 6 0 11 5 11 10 0 6 -2 10 -4 10 -3
0 -8 -4 -11 -10z"/>
<path d="M16290 47350 c0 -5 5 -10 10 -10 6 0 10 5 10 10 0 6 -4 10 -10 10 -5
0 -10 -4 -10 -10z"/>
<path d="M18051 47314 c0 -11 3 -14 6 -6 3 7 2 16 -1 19 -3 4 -6 -2 -5 -13z"/>
<path d="M16770 47310 c-12 -7 -10 -9 8 -7 12 0 22 5 22 9 0 11 -12 10 -30 -2z"/>
<path d="M17901 47114 c0 -11 3 -14 6 -6 3 7 2 16 -1 19 -3 4 -6 -2 -5 -13z"/>
<path d="M12840 47085 c0 -20 7 -46 16 -60 11 -18 13 -29 5 -43 -10 -19 -6
-32 11 -32 4 0 8 7 8 16 0 13 3 14 15 4 16 -14 35 -6 35 16 0 8 -10 14 -25 14
-27 0 -32 9 -13 28 9 9 9 12 -1 12 -9 0 -12 12 -9 40 3 36 1 40 -19 40 -20 0
-23 -5 -23 -35z"/>
<path d="M15978 47113 c7 -3 16 -2 19 1 4 3 -2 6 -13 5 -11 0 -14 -3 -6 -6z"/>
<path d="M11020 47089 c0 -5 5 -7 10 -4 6 3 10 8 10 11 0 2 -4 4 -10 4 -5 0
-10 -5 -10 -11z"/>
<path d="M14440 47089 c0 -5 5 -7 10 -4 6 3 10 8 10 11 0 2 -4 4 -10 4 -5 0
-10 -5 -10 -11z"/>
<path d="M11180 47081 c0 -6 5 -13 10 -16 6 -3 10 1 10 9 0 9 -4 16 -10 16 -5
0 -10 -4 -10 -9z"/>
<path d="M16040 47075 c0 -8 9 -15 20 -15 11 0 20 7 20 15 0 8 -9 15 -20 15
-11 0 -20 -7 -20 -15z"/>
<path d="M12936 47063 c-7 -18 10 -34 30 -26 10 4 11 9 1 24 -15 23 -23 24
-31 2z"/>
<path d="M11203 47026 c9 -7 17 -18 17 -24 0 -8 22 -22 36 -22 14 0 0 30 -16
35 -11 3 -20 11 -20 16 0 5 -8 9 -17 9 -17 -1 -17 -1 0 -14z"/>
<path d="M12627 47022 c-5 -8 -4 -19 4 -28 6 -8 12 -28 11 -44 -1 -37 30 -50
59 -24 40 36 6 99 -40 74 -16 -8 -20 -6 -23 13 -2 16 -5 18 -11 9z"/>
<path d="M16457 46959 c7 -7 15 -10 18 -7 3 3 -2 9 -12 12 -14 6 -15 5 -6 -5z"/>
<path d="M16450 46936 c0 -2 7 -7 16 -10 8 -3 12 -2 9 4 -6 10 -25 14 -25 6z"/>
<path d="M18430 46911 c0 -6 5 -13 10 -16 6 -3 10 1 10 9 0 9 -4 16 -10 16 -5
0 -10 -4 -10 -9z"/>
<path d="M13782 46885 c-11 -13 -8 -15 19 -15 27 0 30 2 19 15 -15 18 -21 18
-38 0z"/>
<path d="M17240 46870 c0 -5 5 -10 10 -10 6 0 10 5 10 10 0 6 -4 10 -10 10 -5
0 -10 -4 -10 -10z"/>
<path d="M18420 46869 c0 -5 5 -7 10 -4 6 3 10 8 10 11 0 2 -4 4 -10 4 -5 0
-10 -5 -10 -11z"/>
<path d="M10173 46853 c-7 -2 -13 -11 -13 -19 0 -12 4 -12 20 -4 32 17 26 37
-7 23z"/>
<path d="M16391 46846 c-7 -8 -8 -17 -3 -20 6 -3 12 3 15 14 6 24 4 25 -12 6z"/>
<path d="M12490 46766 c0 -13 6 -29 14 -35 11 -10 16 -8 21 9 7 21 -9 50 -26
50 -5 0 -9 -11 -9 -24z"/>
<path d="M17646 46781 c-4 -7 -5 -15 -2 -18 9 -9 19 4 14 18 -4 11 -6 11 -12
0z"/>
<path d="M12370 46737 c0 -31 16 -45 46 -39 35 7 40 22 13 43 -34 26 -59 24
-59 -4z"/>
<path d="M14985 46747 c-4 -10 -5 -21 -1 -24 10 -10 18 4 13 24 -4 17 -4 17
-12 0z"/>
<path d="M13680 46730 c0 -5 5 -10 11 -10 5 0 7 5 4 10 -3 6 -8 10 -11 10 -2
0 -4 -4 -4 -10z"/>
<path d="M16266 46703 c-6 -14 -5 -15 5 -6 7 7 10 15 7 18 -3 3 -9 -2 -12 -12z"/>
<path d="M17132 46696 c-7 -16 -11 -30 -10 -31 7 -7 58 8 58 17 0 6 -6 8 -14
5 -10 -4 -16 2 -18 16 -3 20 -4 19 -16 -7z"/>
<path d="M15695 46650 c-3 -5 1 -10 9 -10 9 0 16 5 16 10 0 6 -4 10 -9 10 -6
0 -13 -4 -16 -10z"/>
<path d="M12090 46630 c10 -6 13 -22 11 -50 -2 -35 1 -42 18 -47 21 -5 24 -13
36 -70 4 -19 13 -33 21 -33 18 0 18 14 0 29 -14 12 -28 83 -14 75 4 -3 8 -1 8
4 0 6 -7 12 -15 16 -11 4 -14 13 -9 30 5 20 0 27 -27 40 -35 17 -53 21 -29 6z"/>
<path d="M16545 46617 c-4 -10 -5 -21 -1 -24 10 -10 18 4 13 24 -4 17 -4 17
-12 0z"/>
<path d="M10436 46475 c-11 -8 -15 -15 -9 -15 6 0 16 7 23 15 16 19 11 19 -14
0z"/>
<path d="M16386 46475 c4 -8 8 -15 10 -15 2 0 4 7 4 15 0 8 -4 15 -10 15 -5 0
-7 -7 -4 -15z"/>
<path d="M16438 46483 c7 -3 16 -2 19 1 4 3 -2 6 -13 5 -11 0 -14 -3 -6 -6z"/>
<path d="M15520 46471 c0 -5 7 -14 15 -21 13 -10 15 -9 15 9 0 12 -6 21 -15
21 -8 0 -15 -4 -15 -9z"/>
<path d="M10380 46435 c-8 -9 -8 -15 -2 -15 12 0 26 19 19 26 -2 2 -10 -2 -17
-11z"/>
<path d="M18691 46433 c-1 -12 4 -25 9 -28 12 -7 12 2 0 30 -8 19 -9 19 -9 -2z"/>
<path d="M13360 46400 c0 -14 7 -20 21 -20 15 0 19 4 15 16 -3 9 -6 18 -6 20
0 2 -7 4 -15 4 -8 0 -15 -9 -15 -20z"/>
<path d="M17640 46379 c0 -11 4 -18 10 -14 5 3 7 12 3 20 -7 21 -13 19 -13 -6z"/>
<path d="M15424 46365 c-18 -14 -18 -14 9 -15 17 0 27 5 27 15 0 19 -11 19
-36 0z"/>
<path d="M13420 46360 c0 -5 5 -10 10 -10 6 0 10 5 10 10 0 6 -4 10 -10 10 -5
0 -10 -4 -10 -10z"/>
<path d="M10640 46330 c0 -5 7 -10 16 -10 8 0 12 5 9 10 -3 6 -10 10 -16 10
-5 0 -9 -4 -9 -10z"/>
<path d="M16224 46329 c-3 -5 6 -9 20 -9 31 0 34 6 6 13 -11 3 -23 1 -26 -4z"/>
<path d="M15933 46323 c-15 -5 -17 -23 -4 -23 5 0 11 7 15 15 3 8 4 15 3 14
-1 0 -8 -3 -14 -6z"/>
<path d="M15330 46306 c0 -16 28 -42 36 -33 8 7 -14 47 -26 47 -6 0 -10 -6
-10 -14z"/>
<path d="M10642 46290 c0 -14 2 -19 5 -12 2 6 2 18 0 25 -3 6 -5 1 -5 -13z"/>
<path d="M10684 46276 c-6 -17 2 -36 17 -36 12 0 12 37 -1 45 -6 3 -13 -1 -16
-9z"/>
<path d="M10842 46260 c0 -14 2 -19 5 -12 2 6 2 18 0 25 -3 6 -5 1 -5 -13z"/>
<path d="M15895 46270 c-3 -5 -1 -10 4 -10 6 0 11 5 11 10 0 6 -2 10 -4 10 -3
0 -8 -4 -11 -10z"/>
<path d="M17570 46250 c0 -5 5 -10 11 -10 5 0 7 5 4 10 -3 6 -8 10 -11 10 -2
0 -4 -4 -4 -10z"/>
<path d="M17928 46243 c7 -3 16 -2 19 1 4 3 -2 6 -13 5 -11 0 -14 -3 -6 -6z"/>
<path d="M10495 46210 c3 -5 8 -10 11 -10 2 0 4 5 4 10 0 6 -5 10 -11 10 -5 0
-7 -4 -4 -10z"/>
<path d="M10740 46210 c0 -5 5 -10 10 -10 6 0 10 5 10 10 0 6 -4 10 -10 10 -5
0 -10 -4 -10 -10z"/>
<path d="M12971 46204 c0 -11 3 -14 6 -6 3 7 2 16 -1 19 -3 4 -6 -2 -5 -13z"/>
<path d="M10800 46189 c0 -8 -3 -24 -6 -37 -5 -17 -3 -21 8 -17 8 3 14 16 13
29 0 26 -15 49 -15 25z"/>
<path d="M18361 46172 c-14 -26 -14 -55 -1 -47 6 4 17 1 25 -5 20 -17 20 8 1
45 -14 26 -15 26 -25 7z"/>
<path d="M10495 46170 c-4 -6 6 -10 22 -10 22 0 25 2 13 10 -19 12 -27 12 -35
0z"/>
<path d="M14787 46140 c-3 -11 -1 -20 4 -20 5 0 9 9 9 20 0 11 -2 20 -4 20 -2
0 -6 -9 -9 -20z"/>
<path d="M14810 46139 c0 -11 5 -17 10 -14 6 3 10 13 10 21 0 8 -4 14 -10 14
-5 0 -10 -9 -10 -21z"/>
<path d="M16105 46150 c3 -5 8 -10 11 -10 2 0 4 5 4 10 0 6 -5 10 -11 10 -5 0
-7 -4 -4 -10z"/>
<path d="M14316 46131 c-9 -14 15 -82 25 -75 9 5 0 64 -11 77 -4 5 -11 4 -14
-2z"/>
<path d="M15786 46132 c-2 -4 -1 -14 4 -21 6 -11 10 -9 19 8 10 17 9 21 -3 21
-8 0 -17 -4 -20 -8z"/>
<path d="M15720 46090 c0 -5 5 -10 10 -10 6 0 10 5 10 10 0 6 -4 10 -10 10 -5
0 -10 -4 -10 -10z"/>
<path d="M18411 46084 c0 -11 3 -14 6 -6 3 7 2 16 -1 19 -3 4 -6 -2 -5 -13z"/>
<path d="M18353 46083 c-15 -5 -18 -33 -4 -33 5 0 11 9 14 20 3 11 4 20 4 19
-1 0 -8 -3 -14 -6z"/>
<path d="M13015 46071 c-3 -5 -1 -12 5 -16 5 -3 10 1 10 9 0 18 -6 21 -15 7z"/>
<path d="M17600 46060 c0 -21 15 -27 25 -10 3 6 0 10 -7 11 -7 1 -2 5 12 9
l25 8 -27 1 c-22 1 -28 -4 -28 -19z"/>
<path d="M18797 46063 c-4 -3 -7 -11 -7 -17 0 -6 5 -5 12 2 6 6 9 14 7 17 -3
3 -9 2 -12 -2z"/>
<path d="M14240 46028 c-23 -38 -14 -48 43 -48 42 0 47 17 11 35 -11 6 -18 18
-16 28 6 28 -17 19 -38 -15z"/>
<path d="M17670 46049 c0 -5 5 -7 10 -4 6 3 10 8 10 11 0 2 -4 4 -10 4 -5 0
-10 -5 -10 -11z"/>
<path d="M9814 46034 c-18 -14 -18 -15 4 -4 12 6 22 13 22 15 0 8 -5 6 -26
-11z"/>
<path d="M17061 46043 c0 -4 4 -17 9 -28 8 -19 9 -19 9 2 1 12 -3 25 -9 28 -5
3 -10 3 -9 -2z"/>
<path d="M14326 46022 c-3 -6 3 -12 15 -15 12 -3 19 -1 16 6 -5 15 -24 20 -31
9z"/>
<path d="M15645 46010 c-3 -5 1 -10 9 -10 9 0 16 5 16 10 0 6 -4 10 -9 10 -6
0 -13 -4 -16 -10z"/>
<path d="M15571 45948 c-10 -25 4 -62 20 -53 13 9 11 35 -3 35 -9 0 -9 3 0 12
15 15 16 28 2 28 -6 0 -14 -10 -19 -22z"/>
<path d="M14120 45926 c0 -2 7 -7 16 -10 8 -3 12 -2 9 4 -6 10 -25 14 -25 6z"/>
<path d="M15492 45914 c-23 -16 -29 -34 -12 -34 6 0 18 8 29 19 10 10 25 21
32 24 9 3 7 6 -6 6 -11 1 -31 -6 -43 -15z"/>
<path d="M14060 45864 c0 -8 5 -12 10 -9 6 3 10 10 10 16 0 5 -4 9 -10 9 -5 0
-10 -7 -10 -16z"/>
<path d="M17208 45843 c7 -3 16 -2 19 1 4 3 -2 6 -13 5 -11 0 -14 -3 -6 -6z"/>
<path d="M18542 45833 c2 -9 13 -17 26 -18 21 -2 21 -1 5 17 -20 23 -35 23
-31 1z"/>
<path d="M17993 45779 c-13 -5 -23 -11 -23 -14 0 -2 10 -4 23 -4 12 1 29 0 37
-3 8 -3 12 -3 7 -1 -4 3 -5 8 -2 13 8 13 -18 18 -42 9z"/>
<path d="M17220 45740 c0 -5 9 -15 20 -23 11 -8 17 -16 15 -19 -3 -3 1 -8 10
-11 9 -4 15 -1 15 8 0 7 -9 17 -20 20 -11 4 -18 10 -15 15 3 4 -2 10 -10 14
-8 3 -15 1 -15 -4z"/>
<path d="M13888 45723 c7 -3 16 -2 19 1 4 3 -2 6 -13 5 -11 0 -14 -3 -6 -6z"/>
<path d="M19729 45711 c6 -10 8 -21 5 -23 -3 -3 2 -8 9 -11 12 -5 13 0 4 24
-6 16 -15 29 -20 29 -4 0 -3 -8 2 -19z"/>
<path d="M15473 45713 c9 -2 25 -2 35 0 9 3 1 5 -18 5 -19 0 -27 -2 -17 -5z"/>
<path d="M18176 45634 c-10 -25 -7 -34 9 -34 9 0 15 9 15 25 0 28 -15 34 -24
9z"/>
<path d="M14097 45615 c-5 -10 0 -15 14 -15 12 0 19 5 17 12 -6 18 -25 20 -31
3z"/>
<path d="M18145 45610 c-3 -5 -1 -10 4 -10 6 0 11 5 11 10 0 6 -2 10 -4 10 -3
0 -8 -4 -11 -10z"/>
<path d="M28910 48225 c-131 -36 -484 -245 -465 -275 4 -6 3 -9 -2 -8 -15 4
-51 -26 -46 -39 4 -9 0 -11 -11 -7 -9 3 -16 1 -16 -5 0 -5 -12 -23 -27 -40
-16 -16 -39 -44 -53 -62 -14 -18 -48 -60 -77 -93 -29 -33 -50 -63 -47 -68 3
-4 1 -8 -4 -8 -6 0 -33 -36 -61 -81 -36 -56 -56 -79 -66 -75 -8 3 -15 1 -15
-4 0 -6 5 -10 10 -10 6 0 10 -13 10 -28 0 -31 -41 -79 -58 -68 -6 3 -8 -3 -6
-16 2 -13 1 -17 -2 -10 -9 19 -33 -16 -34 -49 0 -15 -7 -32 -15 -39 -8 -7 -15
-19 -15 -26 0 -8 -4 -14 -8 -14 -6 0 -34 -59 -37 -80 0 -3 -7 -16 -14 -30 -8
-13 -14 -37 -13 -52 0 -15 -2 -28 -6 -28 -13 0 -57 -120 -54 -143 2 -10 -3
-28 -11 -40 -8 -12 -15 -47 -16 -77 -6 -164 -7 -197 -3 -213 4 -15 7 -16 13
-5 13 20 11 -9 -3 -49 -6 -18 -9 -35 -6 -39 14 -13 139 45 230 108 15 10 29
18 32 18 9 0 276 164 396 243 207 137 268 183 375 282 71 66 142 135 173 169
19 20 37 36 41 36 4 0 25 24 47 54 21 29 51 62 66 72 16 11 28 24 28 29 0 6
16 27 35 49 19 21 35 41 35 45 0 3 10 17 23 31 32 36 70 90 61 90 -3 0 0 7 7
16 7 9 14 23 16 32 1 9 7 18 12 20 6 2 11 13 11 25 0 12 6 33 13 47 7 14 14
53 16 88 3 72 -28 176 -63 212 -35 34 -80 70 -90 70 -5 0 -6 3 -3 6 4 4 -10
16 -31 27 -49 27 -193 33 -272 12z m-930 -919 c0 -2 -8 -10 -17 -17 -16 -13
-17 -12 -4 4 13 16 21 21 21 13z m140 -586 c0 -5 -2 -10 -4 -10 -3 0 -8 5 -11
10 -3 6 -1 10 4 10 6 0 11 -4 11 -10z"/>
<path d="M26800 47970 c0 -4 9 -10 20 -13 11 -3 20 -2 20 3 0 4 -9 10 -20 13
-11 3 -20 2 -20 -3z"/>
<path d="M22466 47914 c-4 -9 -4 -19 -1 -22 2 -3 7 3 11 12 4 9 4 19 1 22 -2
3 -7 -3 -11 -12z"/>
<path d="M26700 47690 c-13 -8 -12 -10 3 -10 9 0 17 5 17 10 0 12 -1 12 -20 0z"/>
<path d="M22162 47518 c-7 -7 -12 -18 -12 -25 0 -10 6 -10 25 3 14 9 22 20 19
25 -7 12 -18 11 -32 -3z"/>
<path d="M25950 47290 c0 -5 7 -10 16 -10 8 0 12 5 9 10 -3 6 -10 10 -16 10
-5 0 -9 -4 -9 -10z"/>
<path d="M25341 46394 c0 -11 3 -14 6 -6 3 7 2 16 -1 19 -3 4 -6 -2 -5 -13z"/>
<path d="M28435 45550 c4 -6 11 -8 16 -5 14 9 11 15 -7 15 -8 0 -12 -5 -9 -10z"/>
</g>
</svg>
